<svg width="32" height="32" viewBox="0 0 32 32" fill="none" xmlns="http://www.w3.org/2000/svg">
<path fill-rule="evenodd" clip-rule="evenodd" d="M30.1144 2.53423C30.9792 3.26258 31.0898 4.55412 30.3615 5.41896L16.5679 21.7972C16.1868 22.2498 15.6285 22.5153 15.0369 22.5254C14.4454 22.5355 13.8784 22.2892 13.482 21.85L7.57046 15.2987C6.81299 14.4592 6.87944 13.1646 7.71889 12.4072C8.55835 11.6497 9.85291 11.7161 10.6104 12.5556L14.9487 17.3635L27.2296 2.78135C27.958 1.91651 29.2495 1.80587 30.1144 2.53423Z" fill="#FDFFAC"/>
<path fill-rule="evenodd" clip-rule="evenodd" d="M19.1026 5.44225C16.8396 4.77725 14.4229 4.85693 12.2087 5.66955C9.99451 6.48217 8.09999 7.98472 6.80446 9.95568C5.50894 11.9266 4.88097 14.2617 5.01314 16.6166C5.14531 18.9715 6.03062 21.2216 7.53855 23.0353C9.04648 24.8489 11.0972 26.13 13.3885 26.6898C15.6797 27.2495 18.0902 27.0583 20.2645 26.1442C22.4388 25.2302 24.2619 23.6417 25.4649 21.613C26.668 19.5843 27.1875 17.2227 26.9467 14.8765C26.8456 13.8923 27.5616 13.0126 28.5458 12.9115C29.5299 12.8105 30.4097 13.5265 30.5107 14.5107C30.8299 17.6209 30.1414 20.7513 28.5466 23.4405C26.9518 26.1297 24.5351 28.2354 21.6529 29.447C18.7707 30.6586 15.5754 30.9121 12.5382 30.1701C9.50099 29.4281 6.78255 27.7299 4.78366 25.3258C2.78477 22.9217 1.61122 19.939 1.43602 16.8174C1.26082 13.6958 2.09324 10.6004 3.81056 7.98777C5.52789 5.3751 8.03923 3.38335 10.9743 2.30616C13.9095 1.22896 17.113 1.12334 20.1127 2.00485C21.0619 2.28379 21.6053 3.2794 21.3263 4.22861C21.0474 5.17783 20.0518 5.72119 19.1026 5.44225Z" fill="#FDFFAC" fill-opacity="0.6"/>
</svg>
