<svg width="260" height="260" viewBox="0 0 260 260" fill="none" xmlns="http://www.w3.org/2000/svg">
<circle cx="130.082" cy="130.082" r="61.1827" stroke="#FE5955" stroke-opacity="0.5" stroke-width="17.7986"/>
<circle cx="130" cy="130" r="126" stroke="#FE5955" stroke-opacity="0.08" stroke-width="8"/>
<circle cx="130" cy="130" r="95" stroke="#FE5955" stroke-opacity="0.2" stroke-width="40"/>
<path fill-rule="evenodd" clip-rule="evenodd" d="M130.055 176.11C155.49 176.11 176.11 155.49 176.11 130.055C176.11 104.62 155.49 84 130.055 84C104.62 84 84 104.62 84 130.055C84 155.49 104.62 176.11 130.055 176.11ZM129.458 99.1314C126.889 99.1432 124.436 99.3599 122.28 99.7378C115.919 100.849 114.765 103.175 114.765 107.465V113.131H129.788V115.019H114.765H109.128C104.762 115.019 100.935 117.615 99.7419 122.552C98.3622 128.212 98.3012 131.748 99.7419 137.658C100.81 142.058 103.361 145.191 107.727 145.191H112.893V138.4C112.893 133.495 117.184 129.165 122.279 129.165H137.285C141.463 129.165 144.8 125.763 144.8 121.615V107.463C144.8 103.435 141.365 100.412 137.285 99.7356C134.704 99.3106 132.026 99.1175 129.457 99.1292L129.458 99.1314ZM121.333 103.687C122.885 103.687 124.152 104.962 124.152 106.528C124.152 108.089 122.884 109.352 121.333 109.352C119.775 109.352 118.513 108.09 118.513 106.528C118.513 104.962 119.775 103.687 121.333 103.687ZM146.673 115.014V121.616C146.673 126.733 142.287 131.04 137.287 131.04H122.28C118.169 131.04 114.766 134.52 114.766 138.59V152.742C114.766 156.77 118.307 159.139 122.28 160.292C127.036 161.676 131.599 161.926 137.287 160.292C141.069 159.209 144.801 157.028 144.801 152.742V147.077H129.795V145.189H144.801H152.315C156.682 145.189 158.311 142.176 159.83 137.655C161.398 132.999 161.332 128.52 159.83 122.55C158.751 118.25 156.69 115.016 152.315 115.016H146.678L146.673 115.014ZM138.234 150.857C139.791 150.857 141.053 152.119 141.053 153.681C141.053 155.247 139.791 156.522 138.234 156.522C136.681 156.522 135.414 155.247 135.414 153.681C135.414 152.12 136.682 150.857 138.234 150.857Z" fill="#FE5955"/>
</svg>
