<svg width="181" height="49" viewBox="0 0 181 49" fill="none" xmlns="http://www.w3.org/2000/svg">
<path d="M146.102 33.9795C142.05 33.9795 138.755 30.6836 138.755 26.6326C138.755 22.5815 142.05 19.2856 146.102 19.2856C150.154 19.2856 153.449 22.5815 153.449 26.6326C153.449 30.6836 150.154 33.9795 146.102 33.9795ZM146.102 22.9591C144.077 22.9591 142.429 24.6066 142.429 26.6326C142.429 28.6586 144.077 30.3061 146.102 30.3061C148.127 30.3061 149.776 28.6586 149.776 26.6326C149.776 24.6066 148.127 22.9591 146.102 22.9591Z" fill="#0D4290"/>
<path d="M154.367 45.0003C153.352 45.0003 152.531 44.1779 152.531 43.1636C152.531 39.6192 149.646 36.735 146.102 36.735C142.558 36.735 139.673 39.6192 139.673 43.1636C139.673 44.1779 138.852 45.0003 137.837 45.0003C136.822 45.0003 136 44.1779 136 43.1636C136 37.5933 140.533 33.0615 146.102 33.0615C151.671 33.0615 156.204 37.5933 156.204 43.1636C156.204 44.1779 155.383 45.0003 154.367 45.0003Z" fill="#0D4290"/>
<path d="M170.882 33.97C170.044 33.9709 169.199 33.8274 168.385 33.5314C165.495 32.4803 163.551 29.7091 163.549 26.6347C163.549 25.6204 164.371 24.7971 165.384 24.7962H165.386C166.399 24.7962 167.223 25.6177 167.223 26.6311C167.225 28.1683 168.195 29.5539 169.641 30.0786C171.09 30.6041 172.72 30.1656 173.709 28.9898C174.697 27.8123 174.846 26.1262 174.08 24.7944C173.572 23.9155 173.876 22.7926 174.754 22.2859C175.633 21.7801 176.756 22.0832 177.262 22.9612C178.797 25.6258 178.5 28.997 176.521 31.3521C175.102 33.0426 173.015 33.97 170.882 33.97Z" fill="#0D4290"/>
<path d="M179.163 45.0003C178.148 45.0003 177.327 44.1779 177.327 43.1636C177.327 39.6192 174.442 36.735 170.898 36.735C167.354 36.735 164.469 39.6192 164.469 43.1636C164.469 44.1779 163.648 45.0003 162.633 45.0003C161.617 45.0003 160.796 44.1779 160.796 43.1636C160.796 37.5933 165.329 33.0615 170.898 33.0615C176.467 33.0615 181 37.5933 181 43.1636C181 44.1779 180.178 45.0003 179.163 45.0003Z" fill="#0D4290"/>
<path d="M157.122 28.4694C156.886 28.4694 156.647 28.4236 156.419 28.3295C155.732 28.0452 155.286 27.3752 155.286 26.6327V20.2041H151.612C150.597 20.2041 149.776 19.3817 149.776 18.3673V1.83673C149.776 0.822405 150.597 0 151.612 0H173.653C174.668 0 175.49 0.822405 175.49 1.83673V18.3673C175.49 19.3817 174.668 20.2041 173.653 20.2041H166.148L158.421 27.9313C158.07 28.2828 157.6 28.4694 157.122 28.4694ZM153.449 16.5306H157.122C158.138 16.5306 158.959 17.353 158.959 18.3673V22.1987L164.089 17.0687C164.434 16.7243 164.9 16.5306 165.388 16.5306H171.816V3.67347H153.449V16.5306Z" fill="#0D4290"/>
<path d="M168.143 9.18372H157.122C156.107 9.18372 155.286 8.36132 155.286 7.34699C155.286 6.33266 156.107 5.51025 157.122 5.51025H168.143C169.158 5.51025 169.98 6.33266 169.98 7.34699C169.98 8.36132 169.158 9.18372 168.143 9.18372Z" fill="#0D4290"/>
<path d="M168.143 14.694H157.122C156.107 14.694 155.286 13.8716 155.286 12.8572C155.286 11.8429 156.107 11.0205 157.122 11.0205H168.143C169.158 11.0205 169.98 11.8429 169.98 12.8572C169.98 13.8716 169.158 14.694 168.143 14.694Z" fill="#0D4290"/>
<path d="M61.4149 19.6079C60.8405 19.6079 60.267 19.4608 59.7558 19.1692C58.7912 18.6252 58.1774 17.5947 58.1633 16.4832V9.83319C58.1756 8.70339 58.7877 7.67195 59.7611 7.12097C60.6994 6.58828 61.849 6.54041 62.8311 6.99912C62.832 6.99912 62.8329 6.99912 62.8338 6.99999L69.1002 9.93589C70.3472 10.4756 71.1837 11.7446 71.1837 13.1469C71.1837 14.5491 70.3472 15.8182 69.0528 16.3796L62.8338 19.2937C62.383 19.5044 61.899 19.6079 61.4149 19.6079ZM61.7552 10.4346V15.8565L67.5673 13.1338L61.7552 10.4346ZM61.3036 10.2249C61.3036 10.2257 61.3044 10.2257 61.3053 10.2257L61.3036 10.2249Z" fill="#0D4290"/>
<path d="M70.7347 41H57.2653C56.7374 41 56.2358 40.7694 55.8947 40.3699C55.5536 39.9695 55.4072 39.4411 55.494 38.9241L56.8409 30.9024C56.9847 30.0433 57.7345 29.4131 58.6123 29.4131H69.3878C70.2656 29.4131 71.0153 30.0433 71.1591 30.9024L72.5061 38.9241C72.5929 39.4411 72.4465 39.9695 72.1053 40.3699C71.7642 40.7694 71.2626 41 70.7347 41ZM59.3857 37.4348H68.6143L67.8663 32.9783H60.1337L59.3857 37.4348Z" fill="#0D4290"/>
<path d="M74.7755 40.9998H53.2245C52.2327 40.9998 51.4286 40.2016 51.4286 39.2172C51.4286 38.2327 52.2327 37.4346 53.2245 37.4346H74.7755C75.7673 37.4346 76.5714 38.2327 76.5714 39.2172C76.5714 40.2016 75.7673 40.9998 74.7755 40.9998Z" fill="#0D4290"/>
<path d="M84.2041 26.2937H43.7959C42.8041 26.2937 42 25.4956 42 24.5111C42 23.5267 42.8041 22.7285 43.7959 22.7285H84.2041C85.1959 22.7285 86 23.5267 86 24.5111C86 25.4956 85.1959 26.2937 84.2041 26.2937Z" fill="#0D4290"/>
<path d="M80.6122 32.9783H47.3878C44.4168 32.9783 42 30.5794 42 27.6304V5.34783C42 2.39886 44.4168 0 47.3878 0H80.6122C83.5832 0 86 2.39886 86 5.34783V27.6304C86 30.5794 83.5832 32.9783 80.6122 32.9783ZM47.3878 3.56522C46.3977 3.56522 45.5918 4.36513 45.5918 5.34783V27.6304C45.5918 28.6131 46.3977 29.413 47.3878 29.413H80.6122C81.6023 29.413 82.4082 28.6131 82.4082 27.6304V5.34783C82.4082 4.36513 81.6023 3.56522 80.6122 3.56522H47.3878Z" fill="#0D4290"/>
<path d="M36.2326 37.2873H4.76744C2.13883 37.2873 0 35.2464 0 32.7393V15.2883C0 12.7812 2.13883 10.7402 4.76744 10.7402H10.4884C11.5415 10.7402 12.3953 11.5741 12.3953 12.6046C12.3953 13.6351 11.5415 14.469 10.4884 14.469H4.76744C4.24135 14.469 3.81395 14.8367 3.81395 15.2883V32.7393C3.81395 33.1908 4.24135 33.5586 4.76744 33.5586H36.2326C36.7587 33.5586 37.186 33.1908 37.186 32.7393V15.2883C37.186 14.8367 36.7587 14.469 36.2326 14.469H30.5116C29.4585 14.469 28.6047 13.6351 28.6047 12.6046C28.6047 11.5741 29.4585 10.7402 30.5116 10.7402H36.2326C38.8612 10.7402 41 12.7812 41 15.2883V32.7393C41 35.2464 38.8612 37.2873 36.2326 37.2873Z" fill="#0D4290"/>
<path d="M20.5 44.0001C19.4469 44.0001 18.593 43.1662 18.593 42.1357V35.423C18.593 34.3925 19.4469 33.5586 20.5 33.5586C21.5531 33.5586 22.407 34.3925 22.407 35.423V42.1357C22.407 43.1662 21.5531 44.0001 20.5 44.0001Z" fill="#0D4290"/>
<path d="M27.6512 44.0002H13.3489C12.2958 44.0002 11.4419 43.1663 11.4419 42.1358C11.4419 41.1053 12.2958 40.2715 13.3489 40.2715H27.6512C28.7043 40.2715 29.5582 41.1053 29.5582 42.1358C29.5582 43.1663 28.7043 44.0002 27.6512 44.0002Z" fill="#0D4290"/>
<path d="M39.093 31.9182H1.90698C0.853856 31.9182 0 31.0843 0 30.0538C0 29.0233 0.853856 28.1895 1.90698 28.1895H39.093C40.1461 28.1895 41 29.0233 41 30.0538C41 31.0843 40.1461 31.9182 39.093 31.9182Z" fill="#0D4290"/>
<path d="M20.5 25.2069C20.0242 25.2069 19.5484 25.0339 19.1797 24.688L13.4587 19.3189C12.6989 18.6052 12.6738 17.4254 13.4038 16.6826C14.1329 15.9379 15.3406 15.9179 16.0995 16.6279L20.5 20.759L24.9006 16.6279C25.6614 15.9179 26.8662 15.9379 27.5963 16.6826C28.3263 17.4254 28.3011 18.6052 27.5413 19.3189L21.8204 24.688C21.4517 25.0339 20.9759 25.2069 20.5 25.2069Z" fill="#0D4290"/>
<path d="M20.5 25.2071C19.4469 25.2071 18.593 24.3732 18.593 23.3427V1.86436C18.593 0.833864 19.4469 0 20.5 0C21.5531 0 22.407 0.833864 22.407 1.86436V23.3427C22.407 24.3732 21.5531 25.2071 20.5 25.2071Z" fill="#0D4290"/>
<path d="M88.9597 43.0085C88.4508 43.0085 87.9495 42.8066 87.5745 42.4233C86.9871 41.8254 86.8341 40.9154 87.1899 40.1527L91.9789 29.896C88.5579 23.5387 88.7512 15.6336 92.5567 9.45188C96.5554 2.95318 103.99 -0.718977 111.45 0.117865C118.931 0.944954 125.406 6.1445 127.945 13.3649C128.31 14.4037 127.78 15.5468 126.762 15.9194C125.735 16.2871 124.621 15.7526 124.256 14.7129C122.22 8.92227 117.027 4.75269 111.029 4.08945C105.026 3.43012 99.081 6.36492 95.8743 11.5752C92.6677 16.7855 92.6619 23.5241 95.8571 28.7422C96.211 29.3205 96.2512 30.0433 95.9642 30.6587L93.102 36.7887L99.1135 33.8705C99.7162 33.5779 100.422 33.6189 100.99 33.9788C102.804 35.1297 104.79 35.8846 106.897 36.223C107.966 36.3947 108.697 37.4178 108.529 38.5073C108.36 39.5977 107.358 40.3399 106.288 40.1693C104.019 39.8045 101.863 39.0535 99.8616 37.9318L89.8016 42.8144C89.5337 42.9451 89.2448 43.0085 88.9597 43.0085Z" fill="#0D4290"/>
<path d="M107.327 20.5354C106.244 20.5354 105.368 19.641 105.368 18.5379C105.368 17.4348 106.244 16.5404 107.327 16.5404C108.272 16.5404 109.041 15.7562 109.041 14.7926C109.041 13.829 108.272 13.0448 107.327 13.0448C106.382 13.0448 105.613 13.829 105.613 14.7926C105.613 15.8957 104.737 16.7901 103.654 16.7901C102.571 16.7901 101.694 15.8957 101.694 14.7926C101.694 11.6257 104.222 9.0498 107.327 9.0498C110.432 9.0498 112.96 11.6257 112.96 14.7926C112.96 17.9595 110.432 20.5354 107.327 20.5354Z" fill="#0D4290"/>
<path d="M107.327 26.5283C105.842 26.5283 104.633 25.2964 104.633 23.7817C104.633 22.267 105.842 21.0352 107.327 21.0352C108.812 21.0352 110.021 22.267 110.021 23.7817C110.021 25.2964 108.812 26.5283 107.327 26.5283Z" fill="#0D4290"/>
<path d="M131.727 49.0002C131.371 49.0002 131.015 48.9017 130.7 48.7027L124.491 44.8014C120.083 45.5075 115.573 43.7519 112.778 40.1831C109.805 36.391 109.218 31.1134 111.282 26.7381C113.348 22.3636 117.758 19.5371 122.519 19.5371C122.536 19.5371 122.555 19.5371 122.572 19.5371C127.443 19.5371 131.884 22.4534 133.895 26.9799C135.78 31.2207 135.215 36.1637 132.496 39.8408L133.658 46.6613C133.79 47.4348 133.464 48.216 132.825 48.6569C132.494 48.8851 132.112 49.0002 131.727 49.0002ZM124.87 40.6952C125.23 40.6952 125.588 40.7966 125.897 40.9927L129.052 42.9755L128.482 39.6262C128.381 39.0283 128.551 38.4158 128.945 37.9613C131.167 35.403 131.708 31.7406 130.325 28.6283C128.949 25.5286 125.909 23.5321 122.572 23.5321C122.555 23.5321 122.54 23.5321 122.524 23.5321H122.519C119.255 23.5321 116.23 25.4711 114.814 28.4712C113.398 31.4704 113.8 35.0889 115.839 37.6892C117.875 40.2894 121.241 41.4872 124.432 40.7459C124.577 40.7118 124.725 40.6952 124.87 40.6952ZM122.524 21.5346H122.543H122.524Z" fill="#0D4290"/>
<path d="M121.286 37.0148C120.204 37.0148 119.327 36.1204 119.327 35.0173V29.0248C119.327 27.9217 120.204 27.0273 121.286 27.0273C122.369 27.0273 123.246 27.9217 123.246 29.0248V35.0173C123.246 36.1204 122.369 37.0148 121.286 37.0148Z" fill="#0D4290"/>
</svg>
