<svg xmlns="http://www.w3.org/2000/svg">
	<symbol id="launching" width="48" height="48" viewBox="0 0 48 48" fill="#E40646">
		<path fill-rule="evenodd" clip-rule="evenodd" d="M11.8413 30.6944C10.4751 30.6522 9.14143 31.1157 8.09596 31.9961C7.16748 32.776 6.46168 33.8741 5.92186 34.9793C5.37477 36.0993 4.95435 37.3184 4.63737 38.4266C4.3192 39.5389 4.09757 40.5668 3.95541 41.3155C3.87853 41.7203 3.80823 42.1266 3.75001 42.5346C3.69386 42.9413 3.82319 43.3621 4.11544 43.6543C4.40187 43.9408 4.80544 44.0773 5.20694 44.0236C6.60256 43.8354 7.99086 43.5192 9.34322 43.1324C10.4514 42.8154 11.6705 42.395 12.7905 41.8479C13.8951 41.3084 14.9926 40.6031 15.7724 39.6753C17.5603 37.5585 17.5737 34.2732 15.5162 32.2418C14.5377 31.2918 13.2025 30.7365 11.8413 30.6944ZM6.64596 41.1238C7.22947 40.9998 7.91168 40.8376 8.62819 40.6327C9.649 40.3407 10.7123 39.9694 11.6494 39.5117C12.4264 39.1322 13.2211 38.6681 13.7854 37.9985C14.7609 36.8444 14.7108 35.1089 13.6973 34.0997C13.1726 33.6026 12.4835 33.3156 11.7609 33.2932C11.0346 33.2707 10.3255 33.5173 9.76986 33.9856C9.10061 34.5485 8.637 35.3446 8.25806 36.1204C7.80035 37.0575 7.42911 38.1208 7.13711 39.1416C6.93216 39.8581 6.77001 40.5403 6.64596 41.1238Z" fill="#E40646"/>
		<path fill-rule="evenodd" clip-rule="evenodd" d="M17.1629 25.5223L22.2475 30.6069V39.812C22.2475 40.1974 22.4185 40.563 22.7144 40.81C23.0102 41.057 23.4005 41.16 23.7797 41.0911C24.9346 40.8793 26.0773 40.5448 27.1794 40.145C29.1318 39.4368 31.2339 38.415 32.424 36.6357C33.1148 35.5995 33.4152 34.3583 33.5247 33.1806C33.6352 31.9918 33.5598 30.7701 33.4209 29.6928C33.2658 28.4892 33.0263 27.4245 32.844 26.7134C42.8041 19.6192 44.3347 10.1527 44.3347 4.73511C44.3347 4.02029 43.7575 3.43957 43.0427 3.43514C38.539 3.4072 34.1029 4.53198 30.1566 6.70247C26.5255 8.69959 23.42 11.521 21.0866 14.9336C20.3754 14.7503 19.2978 14.5062 18.077 14.3489C16.9996 14.21 15.778 14.1346 14.5891 14.2451C13.3794 14.3576 12.1534 14.6649 11.1324 15.3469C9.34265 16.5442 8.25334 18.8575 7.62477 20.5904C7.29472 21.5003 7.05995 22.343 6.90761 22.9572C6.82477 23.2912 6.74828 23.6268 6.68336 23.9648C6.61171 24.3485 6.70827 24.7541 6.9598 25.0554C7.20679 25.3513 7.57234 25.5223 7.95775 25.5223H17.1629ZM19.225 23.9075L23.8654 28.5478C26.2202 27.5983 28.4853 26.4383 30.6328 25.0816C39.5036 19.1266 41.441 11.2232 41.7013 6.06378C33.9948 6.44556 26.794 10.6698 22.701 17.2142C21.363 19.3533 20.1808 21.5702 19.225 23.9075ZM24.8475 38.1637C25.2819 38.0416 25.7768 37.888 26.2928 37.7008C27.9842 37.0873 29.5678 36.2283 30.2612 35.1928C30.6224 34.6506 30.848 33.8849 30.9358 32.94C31.0832 31.3546 30.8586 29.736 30.5214 28.1868C28.6978 29.2416 26.8018 30.1667 24.8475 30.9552V38.1637ZM16.8189 22.9223C17.6176 20.9691 18.5552 19.076 19.6242 17.2574C18.0623 16.9145 16.429 16.6853 14.8298 16.834C13.8849 16.9218 13.1192 17.1474 12.577 17.5086C11.5415 18.202 10.6825 19.7856 10.0689 21.477C9.88178 21.993 9.72823 22.4879 9.60605 22.9223H16.8189Z" fill="#E40646"/>
	</symbol>

	<symbol id="transparency" width="48" height="48" viewBox="0 0 48 48" fill="#5B57A2">
		<path fill-rule="evenodd" clip-rule="evenodd" d="M19.5078 12.9354C18.79 12.9354 18.2081 13.5173 18.2081 14.2351V22.3763H16.6279C15.9101 22.3763 15.3282 22.9582 15.3282 23.676C15.3282 24.3938 15.9101 24.9757 16.6279 24.9757H18.2081V28.5129H16.6279C15.9101 28.5129 15.3282 29.0948 15.3282 29.8126C15.3282 30.5304 15.9101 31.1123 16.6279 31.1123H18.2081V35.0051C18.2081 35.7229 18.79 36.3047 19.5078 36.3047C20.2256 36.3047 20.8075 35.7229 20.8075 35.0051V31.1123H26.2275C26.9453 31.1123 27.5272 30.5304 27.5272 29.8126C27.5272 29.0948 26.9453 28.5129 26.2275 28.5129H20.8075V24.9757H28.1474C31.4955 24.9757 34.2469 22.3007 34.2469 18.9556C34.2469 15.6104 31.4955 12.9354 28.1474 12.9354H19.5078ZM20.8075 22.3763V15.5348H28.1474C30.1009 15.5348 31.6475 17.0867 31.6475 18.9556C31.6475 20.8244 30.1009 22.3763 28.1474 22.3763H20.8075Z" fill="#5B57A2"/>
		<path fill-rule="evenodd" clip-rule="evenodd" d="M24 1.70032C11.6842 1.70032 1.70032 11.6842 1.70032 24C1.70032 36.3158 11.6842 46.2997 24 46.2997C36.3158 46.2997 46.2997 36.3158 46.2997 24C46.2997 11.6842 36.3158 1.70032 24 1.70032ZM4.29971 24C4.29971 13.1198 13.1198 4.29971 24 4.29971C34.8802 4.29971 43.7003 13.1198 43.7003 24C43.7003 34.8802 34.8802 43.7003 24 43.7003C13.1198 43.7003 4.29971 34.8802 4.29971 24Z" fill="#5B57A2"/>
	</symbol>

	<symbol id="promoting" width="48" height="48" viewBox="0 0 48 48" fill="#EF8019">
		<path fill-rule="evenodd" clip-rule="evenodd" d="M35.022 3.80889C35.5773 4.02836 35.9117 4.59786 35.8327 5.1897L33.9198 19.5364L42.9193 19.5364C43.7895 19.5363 44.8034 19.4633 45.5338 20.027C46.0872 20.4541 46.4222 21.1051 46.4481 21.8037C46.4823 22.7258 45.8335 23.5084 45.3276 24.2165L31.3837 43.7379C31.0367 44.2238 30.4033 44.4108 29.848 44.1913C29.2928 43.9718 28.9584 43.4024 29.0373 42.8105L30.9502 28.4638L21.9508 28.4638C21.0805 28.4639 20.0667 28.537 19.3362 27.9732C18.7828 27.5461 18.4478 26.8951 18.4219 26.1965C18.3877 25.2745 19.0364 24.4919 19.5423 23.7838L33.4863 4.26227C33.8333 3.77641 34.4667 3.58942 35.022 3.80889ZM32.565 10.0253L21.6892 25.2514C21.5073 25.506 21.368 25.7018 21.2605 25.8593C21.4512 25.8634 21.6914 25.8638 22.0044 25.8638H32.435C32.8097 25.8638 33.1663 26.0255 33.4131 26.3075C33.66 26.5894 33.7731 26.9642 33.7236 27.3356L32.305 37.9749L43.1808 22.7488C43.3627 22.4942 43.502 22.2985 43.6095 22.1409C43.4188 22.1368 43.1786 22.1364 42.8656 22.1364H32.435C32.0603 22.1364 31.7038 21.9747 31.4569 21.6927C31.2101 21.4108 31.0969 21.036 31.1464 20.6646L32.565 10.0253ZM5.82539 12.3999C5.82539 11.6819 6.40742 11.0999 7.12539 11.0999H17.6711C18.389 11.0999 18.9711 11.6819 18.9711 12.3999C18.9711 13.1178 18.389 13.6999 17.6711 13.6999H7.12539C6.40742 13.6999 5.82539 13.1178 5.82539 12.3999ZM1.60712 24.0001C1.60712 23.2821 2.18915 22.7001 2.90712 22.7001H12.3982C13.1162 22.7001 13.6982 23.2821 13.6982 24.0001C13.6982 24.7181 13.1162 25.3001 12.3982 25.3001H2.90712C2.18915 25.3001 1.60712 24.7181 1.60712 24.0001ZM4.77082 35.6003C4.77082 34.8824 5.35285 34.3004 6.07082 34.3004H17.6711C18.389 34.3004 18.9711 34.8824 18.9711 35.6003C18.9711 36.3183 18.389 36.9003 17.6711 36.9003H6.07082C5.35285 36.9003 4.77082 36.3183 4.77082 35.6003Z" fill="#EF8019"/>
	</symbol>

	<symbol id="nomodifications" width="48" height="48" viewBox="0 0 48 48" fill="#0698D6">
		<path fill-rule="evenodd" clip-rule="evenodd" d="M23.9997 15.6759C19.4026 15.6759 15.676 19.4025 15.676 23.9995C15.676 28.5966 19.4026 32.3232 23.9997 32.3232C28.5967 32.3232 32.3233 28.5966 32.3233 23.9995C32.3233 19.4025 28.5967 15.6759 23.9997 15.6759ZM18.276 23.9995C18.276 20.8385 20.8386 18.2759 23.9997 18.2759C27.1607 18.2759 29.7233 20.8385 29.7233 23.9995C29.7233 27.1606 27.1607 29.7232 23.9997 29.7232C20.8386 29.7232 18.276 27.1606 18.276 23.9995Z" fill="#0698D6"/>
		<path fill-rule="evenodd" clip-rule="evenodd" d="M19.4049 2.73528C19.0835 2.47848 18.6596 2.38895 18.2618 2.49388C16.3709 2.9927 14.5546 3.74061 12.8607 4.71797C12.5031 4.92436 12.2647 5.28843 12.2186 5.69882L11.6446 10.8075C11.3626 11.0722 11.0891 11.3456 10.8245 11.6276L5.71372 12.2016C5.30397 12.2477 4.94035 12.4853 4.73376 12.8422C3.75189 14.5382 2.99962 16.3571 2.4967 18.2512C2.39097 18.6494 2.48024 19.0741 2.73732 19.396L5.94609 23.4142C5.93388 23.801 5.93388 24.188 5.94609 24.5748L2.73546 28.5929C2.47807 28.915 2.38876 29.3401 2.49476 29.7386C2.99864 31.6327 3.75257 33.4513 4.73666 35.1463C4.94231 35.5005 5.30286 35.7371 5.70967 35.7848L10.8263 36.3841C11.0916 36.667 11.3659 36.9414 11.6487 37.2068L12.2228 42.3176C12.2689 42.7282 12.5074 43.0924 12.8654 43.2987C14.562 44.2767 16.3809 45.0253 18.2744 45.5247C18.672 45.6295 19.0958 45.5401 19.4172 45.2835L23.4353 42.0747C23.8221 42.0869 24.2092 42.0869 24.5959 42.0747L28.614 45.2853C28.9361 45.5427 29.3612 45.6321 29.7597 45.5261C31.6538 45.0222 33.4724 44.2682 35.1674 43.2841C35.5235 43.0774 35.7606 42.7142 35.8066 42.305L36.3806 37.1963C36.6626 36.9317 36.9361 36.6582 37.2007 36.3763L42.3115 35.8022C42.7221 35.7561 43.0863 35.5176 43.2926 35.1596C44.2706 33.463 45.0191 31.6441 45.5186 29.7506C45.6234 29.353 45.534 28.9292 45.2774 28.6078L42.0686 24.5897C42.0808 24.2029 42.0808 23.8158 42.0686 23.4291L45.2792 19.411C45.5366 19.0889 45.6259 18.6637 45.5199 18.2653C45.0161 16.3712 44.2621 14.5526 43.278 12.8576C43.0713 12.5015 42.7081 12.2644 42.2989 12.2184L37.1902 11.6444C36.9256 11.3624 36.6521 11.0889 36.3702 10.8243L35.7961 5.71354C35.7501 5.30379 35.5124 4.94016 35.1556 4.73358C33.4596 3.75171 31.6407 2.99944 29.7466 2.49651C29.3484 2.39079 28.9236 2.48006 28.6017 2.73714L24.5836 5.94591C24.1968 5.9337 23.8097 5.9337 23.423 5.9459L19.4049 2.73528ZM14.1738 11.5833L14.7275 6.6551C15.8676 6.04698 17.0654 5.55385 18.3031 5.183L22.1818 8.28221C22.4328 8.48281 22.7493 8.58332 23.0701 8.56434C23.6916 8.52756 24.3147 8.52756 24.9362 8.56434C25.2569 8.58331 25.5732 8.4829 25.8243 8.28244L29.7019 5.18585C30.9432 5.55987 32.1442 6.05654 33.287 6.66851L33.8409 11.6C33.8768 11.9192 34.0296 12.2139 34.2698 12.4272C34.7348 12.8398 35.1747 13.2798 35.5874 13.7447C35.8006 13.9849 36.0952 14.1377 36.4145 14.1736L41.3449 14.7276C41.9581 15.8695 42.4557 17.0698 42.8304 18.3106L39.7323 22.1879C39.5317 22.4389 39.4312 22.7554 39.4502 23.0762C39.487 23.6977 39.487 24.3208 39.4502 24.9423C39.4312 25.263 39.5316 25.5794 39.7321 25.8304L42.8295 29.7091C42.458 30.9498 41.9641 32.1504 41.3549 33.2933L36.425 33.847C36.1058 33.8829 35.8111 34.0357 35.5978 34.2759C35.1852 34.7409 34.7452 35.1808 34.2803 35.5935C34.0401 35.8067 33.8873 36.1014 33.8514 36.4206L33.2974 41.351C32.1555 41.9642 30.9552 42.4618 29.7144 42.8365L25.8371 39.7384C25.5861 39.5378 25.2696 39.4373 24.9488 39.4563C24.3273 39.4931 23.7042 39.4931 23.0826 39.4563C22.762 39.4373 22.4456 39.5377 22.1946 39.7382L18.3159 42.8356C17.0752 42.4642 15.8746 41.9702 14.7317 41.361L14.178 36.4311C14.1421 36.1119 13.9893 35.8172 13.7491 35.604C13.2841 35.1913 12.8442 34.7513 12.4315 34.2864C12.2197 34.0478 11.9275 33.8953 11.6105 33.8582L6.67163 33.2797C6.0576 32.1367 5.55933 30.9353 5.18427 29.6933L8.28239 25.816C8.483 25.5649 8.5835 25.2485 8.56452 24.9277C8.52774 24.3062 8.52774 23.683 8.56452 23.0615C8.5835 22.7408 8.48308 22.4245 8.28263 22.1735L5.18603 18.2958C5.56005 17.0546 6.05672 15.8536 6.66869 14.7107L11.6002 14.1568C11.9194 14.121 12.2141 13.9682 12.4273 13.7279C12.84 13.263 13.2799 12.823 13.7449 12.4104C13.9851 12.1972 14.1379 11.9025 14.1738 11.5833Z" fill="#0698D6"/>
	</symbol>
</svg>