<svg xmlns="http://www.w3.org/2000/svg">
	<symbol id="supermarkets" width="32" height="32" viewBox="0 0 32 32" >
		<path d="M17.0998 17.3333C17.0998 16.7258 16.6073 16.2333 15.9998 16.2333C15.3923 16.2333 14.8998 16.7258 14.8998 17.3333V21.7778C14.8998 22.3853 15.3923 22.8778 15.9998 22.8778C16.6073 22.8778 17.0998 22.3853 17.0998 21.7778V17.3333Z" fill="#E40646"/>
		<path d="M23.0122 16.254C23.6083 16.3712 23.9964 16.9495 23.8792 17.5456L23.005 21.99C22.8877 22.5861 22.3094 22.9743 21.7133 22.8571C21.1173 22.7398 20.7291 22.1615 20.8463 21.5654L21.7205 17.121C21.8378 16.5249 22.4161 16.1367 23.0122 16.254Z" fill="#E40646"/>
		<path d="M10.279 17.121C10.1618 16.5249 9.5835 16.1367 8.98741 16.254C8.39132 16.3712 8.00313 16.9495 8.12037 17.5456L8.99453 21.99C9.11177 22.5861 9.69004 22.9743 10.2861 22.8571C10.8822 22.7398 11.2704 22.1616 11.1532 21.5655L10.279 17.121Z" fill="#E40646"/>
		<path fill-rule="evenodd" clip-rule="evenodd" d="M13.9377 4.63081C14.2861 4.13311 14.165 3.44723 13.6673 3.09884C13.1696 2.75046 12.4838 2.87149 12.1354 3.36919L7.27865 10.3074H6.50046C3.81767 10.3074 1.78991 12.7371 2.26982 15.3766L4.06914 25.2729C4.44089 27.3175 6.22166 28.8037 8.29979 28.8037H23.6992C25.7774 28.8037 27.5581 27.3175 27.9299 25.2729L29.7292 15.3766C30.2091 12.7371 28.1814 10.3074 25.4986 10.3074H24.721L19.8643 3.36919C19.5159 2.87149 18.83 2.75046 18.3323 3.09884C17.8346 3.44723 17.7136 4.13311 18.0619 4.63081L22.0355 10.3074H9.96409L13.9377 4.63081ZM6.50046 12.5074C5.19026 12.5074 4.19996 13.694 4.43433 14.983L6.23366 24.8793C6.41521 25.8779 7.28489 26.6037 8.29979 26.6037H23.6992C24.7141 26.6037 25.5838 25.8779 25.7654 24.8793L27.5647 14.983C27.7991 13.694 26.8088 12.5074 25.4986 12.5074H6.50046Z" fill="#E40646"/>
	</symbol>

	<symbol id="clothes" width="32" height="32" viewBox="0 0 32 32" >
		<path fill-rule="evenodd" clip-rule="evenodd" d="M12.9933 3.21606C13.964 3.59802 15.0129 3.81781 16.0568 3.81781C17.2069 3.81781 18.6095 3.61329 19.6873 3.21195C19.9035 3.1478 20.1342 3.15164 20.3481 3.22295L24.3481 4.55629C24.5101 4.61029 24.6573 4.70127 24.7781 4.82202L30.1114 10.1554C30.5137 10.5576 30.5428 11.2003 30.1786 11.6374L26.8453 15.6374C26.5783 15.9577 26.16 16.0936 25.7669 16.0083V28.2665C25.7669 28.874 25.2744 29.3665 24.6669 29.3665H7.33357C6.72605 29.3665 6.23357 28.874 6.23357 28.2665V16.0083C5.84044 16.0936 5.42213 15.9577 5.15519 15.6374L1.82186 11.6374C1.45764 11.2003 1.48679 10.5576 1.88908 10.1554L7.22242 4.82202C7.3546 4.68983 7.51829 4.59352 7.69804 4.54216L12.3647 3.20883C12.5705 3.15004 12.789 3.15257 12.9933 3.21606ZM13.7007 7.34566C14.1728 8.1549 14.8699 8.79992 16.0006 8.79992C17.1312 8.79992 17.8284 8.1549 18.3004 7.34566C18.6042 6.82487 18.7995 6.25621 18.925 5.66907C18.8653 5.68095 18.8043 5.6935 18.7422 5.70691C17.936 5.88097 16.9665 6.0644 16.0568 6.03503C15.2945 6.01043 14.2649 5.81847 13.5938 5.65613C13.3864 5.60598 13.1958 5.55637 13.0299 5.51149C13.1878 6.14872 13.3666 6.77289 13.7007 7.34566ZM6.29848 13.5625L6.94919 13.2332C7.25552 13.08 7.69271 13.1863 7.98405 13.3665C8.27539 13.5467 8.44661 13.9802 8.44661 14.323V27.1784H23.5494V14.3214C23.5494 13.9787 23.6939 13.5702 23.9853 13.39C24.2766 13.2098 24.7608 13.0956 25.0672 13.2489L25.7179 13.5625L27.8425 10.9832L23.4051 6.54581L21.0958 5.79488C21.1287 6.14046 20.996 6.52016 20.8963 6.84636C20.765 7.27603 20.5473 7.8601 20.2007 8.45417C19.5061 9.64493 18.2032 10.9999 16.0006 10.9999C13.7979 10.9999 12.495 9.64493 11.8004 8.45417C11.279 7.56027 11.052 6.70859 10.9628 6.31447C10.9324 6.17975 10.901 6.04237 10.9004 5.90364L8.57812 6.58191L4.1582 10.9989L6.29848 13.5625Z" fill="#5B57A2"/>
	</symbol>

	<symbol id="cafes" width="32" height="32" viewBox="0 0 32 32" >
		<path d="M12.7657 2.00596C12.4008 1.52026 11.7112 1.42236 11.2256 1.78728C10.7405 2.15171 10.6422 2.8399 11.0054 3.32548C11.139 3.50722 11.2568 3.7022 11.3622 3.90134C11.5685 4.29086 11.6591 4.60248 11.6522 4.75676C11.6928 4.7954 11.3871 5.04099 11.3394 5.08179C11.0323 5.34924 10.3998 5.89994 10.355 6.89617C10.3201 7.67455 10.6618 8.43263 10.8984 8.87965C11.0572 9.17963 11.2353 9.47382 11.4393 9.74569C11.8042 10.2314 12.4938 10.3293 12.9795 9.96436C13.4645 9.59993 13.5627 8.91162 13.1995 8.42603C13.0674 8.24286 12.9484 8.04985 12.8428 7.8503C12.6366 7.46078 12.5459 7.14916 12.5528 6.99488C12.519 6.96271 12.8264 6.70415 12.8656 6.66985C13.1728 6.40241 13.8052 5.8517 13.85 4.85547C13.885 4.07709 13.5432 3.31901 13.3066 2.87199C13.1478 2.57201 12.9697 2.27784 12.7657 2.00596Z" fill="#EF8019"/>
		<path fill-rule="evenodd" clip-rule="evenodd" d="M2.65063 12.9359C2.65063 12.3284 3.14312 11.8359 3.75064 11.8359H24.9307C26.3983 11.8359 27.8252 12.267 28.9626 13.2211C30.0446 14.1285 30.7005 15.4051 30.7005 16.7869V17.7496C30.7005 19.1313 30.0446 20.4079 28.9626 21.3154C27.9665 22.1509 26.6723 22.6264 25.333 22.6925C25.0385 23.5065 24.6531 24.2891 24.1813 25.0248C23.6584 25.8402 23.0389 26.5833 22.3395 27.2396H24.931C25.5385 27.2396 26.031 27.732 26.031 28.3396C26.031 28.9471 25.5385 29.4396 24.931 29.4396C17.8706 29.4396 10.8113 29.4396 3.75088 29.4396C3.14337 29.4396 2.65088 28.9471 2.65088 28.3396C2.65088 27.732 3.14337 27.2396 3.75088 27.2396H6.34189C5.64246 26.5833 5.02299 25.8402 4.50008 25.0248C3.29211 23.141 2.65022 20.9501 2.65063 18.7123V12.9359ZM22.3293 23.8372C21.3909 25.3007 20.0693 26.477 18.5102 27.2396H10.1712C8.61212 26.477 7.2905 25.3007 6.35202 23.8372C5.37136 22.3079 4.85026 20.5291 4.85064 18.7123V14.0359H23.8307V18.7126C23.8311 20.4882 23.29 22.3391 22.3293 23.8372ZM25.9076 20.4068C26.5378 20.273 27.1058 20.0014 27.5489 19.6298C28.189 19.0929 28.5005 18.4105 28.5005 17.7496V16.7869C28.5005 16.126 28.189 15.4435 27.5489 14.9066C27.1348 14.5594 26.6117 14.2995 26.0307 14.1577V18.7121C26.0308 19.2815 25.9894 19.8478 25.9076 20.4068Z" fill="#EF8019"/>
		<path d="M16.3603 1.78728C16.846 1.42236 17.5356 1.52026 17.9005 2.00596C18.1044 2.27784 18.2825 2.57201 18.4413 2.87199C18.678 3.31901 19.0197 4.07709 18.9848 4.85547C18.94 5.8517 18.3075 6.40241 18.0004 6.66985C17.9665 6.69997 17.6563 6.96515 17.6876 6.99488C17.6806 7.14916 17.7713 7.46078 17.9775 7.8503C18.0832 8.04985 18.2022 8.24286 18.3343 8.42603C18.6975 8.91162 18.5993 9.59993 18.1142 9.96436C17.6285 10.3293 16.939 10.2314 16.574 9.74569C16.3701 9.47382 16.192 9.17963 16.0332 8.87965C15.7965 8.43263 15.4548 7.67455 15.4898 6.89617C15.5345 5.89994 16.167 5.34924 16.4742 5.08179C16.5355 5.02844 16.8239 4.79191 16.787 4.75676C16.7939 4.60248 16.7032 4.29086 16.497 3.90134C16.3916 3.7022 16.2738 3.50722 16.1402 3.32548C15.777 2.8399 15.8753 2.15171 16.3603 1.78728Z" fill="#EF8019"/>
	</symbol>

	<symbol id="home" width="32" height="32" viewBox="0 0 32 32" >
		<path fill-rule="evenodd" clip-rule="evenodd" d="M2.8999 4.99193C2.8999 5.59952 2.94038 6.44601 3.10214 7.41424C3.42377 9.33936 4.23949 11.8271 6.25577 13.8384C8.36547 15.943 10.986 16.2626 12.9647 16.0981C13.7045 16.0366 14.3722 15.9069 14.9186 15.7687V18.5334H9.42892C8.86183 18.5334 8.38296 18.9791 8.33273 19.5417C8.30073 19.9124 8.28403 20.2847 8.27322 20.6566C8.25374 21.3272 8.25342 22.247 8.33244 23.2323C8.41091 24.2108 8.57056 25.2939 8.88774 26.2747C9.19849 27.2357 9.70377 28.2347 10.5671 28.8807C10.7574 29.023 10.9885 29.0999 11.2261 29.0999H20.8111C21.0487 29.0999 21.2799 29.023 21.4701 28.8807C22.3335 28.2347 22.8387 27.2357 23.1495 26.2747C23.4667 25.2939 23.6263 24.2108 23.7048 23.2323C23.7838 22.247 23.7835 21.3272 23.764 20.6566C23.7531 20.2822 23.7378 19.9067 23.7038 19.5335C23.6522 18.9671 23.1771 18.5334 22.6083 18.5334H17.1186V17.2667C17.6309 17.301 18.2713 17.3235 18.9841 17.3033C20.7318 17.2537 23.0524 16.9443 24.9704 15.7963C27.0203 14.5694 28.0201 12.2802 28.5202 10.5141C28.7779 9.60405 28.9216 8.76647 29.0012 8.15736C29.0454 7.81907 29.0821 7.47877 29.0986 7.13785C29.1231 6.57713 28.713 6.07406 28.1551 5.99456C27.2863 5.87757 26.4047 5.83417 25.5287 5.83417C24.0565 5.83417 22.0941 5.98485 20.4033 6.65953C18.7212 7.33074 17.4188 8.61208 16.5439 9.69334C15.9301 7.63908 14.8923 5.48609 12.9891 4.3469C11.2447 3.30285 8.91459 2.99817 7.15516 2.92185C6.25155 2.88266 5.44845 2.90227 4.87084 2.93156C4.55214 2.94773 4.23363 2.96959 3.91616 3.00221C3.40482 3.05889 3.00097 3.46327 2.94401 3.97459C2.90709 4.31166 2.8999 4.65322 2.8999 4.99193ZM5.10064 5.12306C5.10628 5.62469 5.14566 6.29512 5.27207 7.05171C5.54949 8.71227 6.23142 10.7067 7.80952 12.2809C9.2942 13.762 11.1667 14.04 12.7824 13.9057C13.6483 13.8337 14.4067 13.6436 14.9186 13.4837C14.9186 13.1217 14.9518 12.747 14.8988 12.3881C14.8383 11.978 14.6653 10.9866 14.3013 9.89734C13.7953 8.38315 13.0024 6.91885 11.8592 6.2346C10.6082 5.48583 8.74497 5.19288 7.05983 5.11979C6.30079 5.08686 5.61628 5.09971 5.10064 5.12306ZM17.1186 15.0611C17.5947 15.0971 18.2197 15.1241 18.9217 15.1042C20.5281 15.0586 22.4009 14.7704 23.8406 13.9086C25.1484 13.1258 25.9458 11.5306 26.4035 9.91465C26.5978 9.22824 26.7182 8.58287 26.7919 8.07439C26.4334 8.0517 26.0028 8.03417 25.5287 8.03417C24.1553 8.03417 22.5232 8.18231 21.2187 8.70286C19.9818 9.1964 18.9292 10.2184 18.1557 11.2004C17.7773 11.6809 17.4842 12.1282 17.2867 12.4537C17.2188 12.5655 17.1627 12.6623 17.1186 12.7403V15.0611ZM10.4719 20.7334C10.4543 21.3501 10.4551 22.1803 10.5254 23.0564C10.5967 23.9454 10.7366 24.8419 10.981 25.5978C11.1726 26.1902 11.4035 26.6188 11.651 26.8999H20.3863C20.6338 26.6188 20.8647 26.1902 21.0562 25.5978C21.3007 24.8419 21.4405 23.9454 21.5118 23.0564C21.5821 22.1803 21.5829 21.3501 21.5653 20.7334H10.4719Z" fill="#0698D6"/>
	</symbol>

	<symbol id="hotels" width="32" height="32" viewBox="0 0 32 32" >
		<path fill-rule="evenodd" clip-rule="evenodd" d="M17.8224 5.25265C14.0104 4.60654 10.0499 6.03719 7.54878 9.11487C7.33687 9.37564 7.22344 9.52862 7.19662 9.57537C7.21696 9.80982 7.65218 9.91169 7.82034 10.0088L11.4566 12.1082C13.0419 9.57194 14.8628 7.47607 16.6221 6.09175C17.0191 5.77932 17.4205 5.4972 17.8224 5.25265ZM5.84146 7.72741C5.54436 8.093 5.13248 8.55234 5.02326 9.21424C4.8793 10.0868 5.26126 10.9433 5.96863 11.451C6.18546 11.6067 6.45434 11.7605 6.72034 11.914C9.3124 13.4106 11.9045 14.9071 14.4965 16.4036L8.43643 26.9H4.00015C3.39263 26.9 2.90015 27.3925 2.90015 28C2.90015 28.6075 3.39263 29.1 4.00015 29.1H27.9981C28.6057 29.1 29.0981 28.6075 29.0981 28C29.0981 27.3925 28.6057 26.9 27.9981 26.9H10.9768L16.4018 17.5036L24.2124 22.0131C24.467 22.1601 24.7221 22.3075 24.9548 22.4127C25.7482 22.7714 26.6809 22.6739 27.3646 22.113C27.8832 21.6875 28.0751 21.1011 28.2431 20.661C30.4987 14.7544 28.1994 7.91938 22.5486 4.65692C16.8974 1.39374 9.82889 2.82072 5.84146 7.72741ZM21.4486 6.56217C21.2211 6.43079 20.8436 6.36136 20.2235 6.54621C19.6003 6.73198 18.8365 7.14865 17.9825 7.82067C16.4768 9.00546 14.8329 10.8714 13.3631 13.2089L19.7352 16.8878C21.0247 14.4462 21.8186 12.0895 22.0918 10.1932C22.2468 9.11756 22.2258 8.24781 22.0751 7.61522C21.9251 6.98574 21.6762 6.69356 21.4486 6.56217ZM21.6417 17.9886C23.0455 15.3475 23.9501 12.7226 24.2693 10.5069C24.3414 10.0068 24.385 9.51814 24.3958 9.04781C26.8614 12.0261 27.6027 16.1713 26.1879 19.8762C26.1288 20.0309 26.106 20.3775 25.9139 20.4302C25.6905 20.3461 25.4834 20.2066 25.278 20.0879L21.6417 17.9886Z" fill="#78B72A"/>
	</symbol>
</svg>