<svg xmlns="http://www.w3.org/2000/svg">
	<symbol id="clients" width="48" height="48" viewBox="0 0 48 48">
		<path fill-rule="evenodd" clip-rule="evenodd" d="M18.7472 5.6542C14.242 5.6542 10.5897 9.30646 10.5897 13.8117C10.5897 18.317 14.242 21.9693 18.7472 21.9693C23.2525 21.9693 26.9048 18.317 26.9048 13.8117C26.9048 9.30646 23.2525 5.6542 18.7472 5.6542ZM7.9897 13.8117C7.9897 7.87052 12.806 3.0542 18.7472 3.0542C24.6885 3.0542 29.5048 7.87052 29.5048 13.8117C29.5048 19.753 24.6885 24.5693 18.7472 24.5693C12.806 24.5693 7.9897 19.753 7.9897 13.8117ZM31.244 4.75874C31.5635 4.11578 32.3437 3.85359 32.9867 4.17311C36.5257 5.93184 38.9623 9.58605 38.9623 13.8117C38.9623 18.0374 36.5257 21.6917 32.9867 23.4504C32.3437 23.7699 31.5635 23.5077 31.244 22.8648C30.9245 22.2218 31.1867 21.4416 31.8296 21.122C34.5188 19.7856 36.3623 17.0128 36.3623 13.8117C36.3623 10.6107 34.5188 7.83786 31.8296 6.50145C31.1867 6.18193 30.9245 5.40169 31.244 4.75874ZM18.7472 30.8743C13.2974 30.8743 8.38964 33.846 5.24198 38.5721C4.8564 39.151 4.63851 39.4828 4.50673 39.7516C4.25615 40.2627 4.57444 40.7725 5.15394 40.8399C5.51862 40.8823 6.01029 40.8844 6.81467 40.8844H30.6798C31.4842 40.8844 31.9759 40.8823 32.3405 40.8399C32.8831 40.7768 33.2661 40.3192 32.9878 39.7516C32.856 39.4828 32.6381 39.151 32.2525 38.5721C29.1048 33.846 24.1971 30.8743 18.7472 30.8743ZM3.078 37.1308C6.63177 31.795 12.2989 28.2743 18.7472 28.2743C25.1955 28.2743 30.8627 31.795 34.4165 37.1308C34.736 37.6104 35.068 38.0885 35.3223 38.6071C35.5695 39.1113 35.7291 39.6508 35.691 40.2865C35.6607 40.791 35.4906 41.2783 35.2762 41.6788C35.0617 42.0793 34.7504 42.491 34.3473 42.7959C33.8119 43.2008 33.2232 43.3548 32.641 43.4225C32.108 43.4845 31.463 43.4844 30.7469 43.4844H6.74756C6.03154 43.4844 5.38648 43.4845 4.85352 43.4225C4.27134 43.3548 3.68257 43.2008 3.14719 42.7959C2.74407 42.491 2.43278 42.0793 2.21832 41.6788C2.00386 41.2783 1.83379 40.791 1.80351 40.2865C1.76535 39.6508 1.92502 39.1113 2.1722 38.6071C2.42645 38.0885 2.75852 37.6104 3.078 37.1308ZM35.4498 30.7496C35.7721 30.1081 36.5535 29.8492 37.1951 30.1715C40.487 31.8252 43.2838 34.4654 45.3141 37.736C45.6556 38.2861 46.0146 38.8263 46.1286 39.5617C46.2493 40.3402 46.0391 41.1107 45.7026 41.7156C45.3662 42.3205 44.8224 42.9054 44.0973 43.2135C43.4028 43.5086 42.6417 43.4844 41.8657 43.4844C41.1477 43.4844 40.5657 42.9024 40.5657 42.1844C40.5657 41.4664 41.1477 40.8844 41.8657 40.8844C42.8621 40.8844 42.9873 40.8602 43.0806 40.8205C43.3581 40.7026 43.6054 40.2579 43.5593 39.9599C43.5421 39.8495 43.5219 39.7787 43.1051 39.1072C41.3057 36.2086 38.8557 33.9154 36.0279 32.4948C35.3864 32.1726 35.1275 31.3912 35.4498 30.7496Z"/>
	</symbol>

	<symbol id="turnover" width="48" height="48" viewBox="0 0 48 48">
		<path fill-rule="evenodd" clip-rule="evenodd" d="M5.30286 8.58661C4.89434 8.95515 4.84811 9.19574 4.84811 9.29202C4.84811 9.3883 4.89434 9.6289 5.30286 9.99744C5.71118 10.3658 6.37509 10.7571 7.30614 11.1124C9.15929 11.8195 11.8072 12.2841 14.7965 12.2841C17.7859 12.2841 20.4337 11.8195 22.2869 11.1124C23.218 10.7571 23.8819 10.3658 24.2902 9.99744C24.6987 9.6289 24.7449 9.3883 24.7449 9.29202C24.7449 9.19574 24.6987 8.95515 24.2902 8.58661C23.8819 8.21824 23.218 7.82692 22.2869 7.47165C20.4337 6.76454 17.7859 6.29995 14.7965 6.29995C11.8072 6.29995 9.15929 6.76454 7.30614 7.47165C6.37509 7.82692 5.71118 8.21824 5.30286 8.58661ZM24.7804 12.814C24.9169 13.3858 25.4312 13.8111 26.0449 13.8111C26.7629 13.8111 27.3449 13.229 27.3449 12.5111V9.29202C27.3449 8.20308 26.7617 7.31456 26.0318 6.6561C25.3017 5.99747 24.3183 5.46393 23.2138 5.04249C20.9958 4.19617 18.0195 3.69995 14.7965 3.69995C11.5735 3.69995 8.59722 4.19617 6.37924 5.04249C5.27473 5.46393 4.29134 5.99747 3.56127 6.6561C2.83139 7.31456 2.24811 8.20308 2.24811 9.29202V35.0445C2.24811 36.1334 2.83139 37.0219 3.56127 37.6804C4.29134 38.339 5.27473 38.8726 6.37924 39.294C8.59722 40.1403 11.5735 40.6365 14.7965 40.6365C15.5145 40.6365 16.0965 40.0545 16.0965 39.3365C16.0965 38.6186 15.5145 38.0365 14.7965 38.0365C11.8072 38.0365 9.15929 37.5719 7.30614 36.8648C6.37509 36.5096 5.71118 36.1182 5.30286 35.7499C4.89434 35.3813 4.84811 35.1407 4.84811 35.0445V30.0023C5.31838 30.2665 5.83405 30.5018 6.37924 30.7099C8.59722 31.5562 11.5735 32.0524 14.7965 32.0524C15.5145 32.0524 16.0965 31.4704 16.0965 30.7524C16.0965 30.0344 15.5145 29.4524 14.7965 29.4524C11.8072 29.4524 9.15929 28.9878 7.30614 28.2807C6.37509 27.9254 5.71118 27.5341 5.30286 27.1657C4.89434 26.7972 4.84811 26.5566 4.84811 26.4603V21.4181C5.21286 21.6231 5.60371 21.8099 6.01247 21.9797C8.03403 22.8193 10.7533 23.3476 13.7293 23.45C14.081 23.4621 14.437 23.4682 14.7965 23.4682C15.5145 23.4682 16.0965 22.8862 16.0965 22.1682C16.0965 21.4503 15.5145 20.8682 14.7965 20.8682C14.4667 20.8682 14.1405 20.8626 13.8186 20.8515C11.0615 20.7567 8.66781 20.2672 7.00974 19.5786C6.17722 19.2328 5.59428 18.8632 5.23992 18.523C4.88875 18.186 4.84811 17.9681 4.84811 17.8762V12.834C5.31838 13.0982 5.83405 13.3335 6.37924 13.5416C8.59722 14.3879 11.5735 14.8841 14.7965 14.8841C18.0195 14.8841 20.9958 14.3879 23.2138 13.5416C23.7727 13.3283 24.3006 13.0863 24.7804 12.814ZM23.7094 22.5358C23.3008 22.9044 23.2546 23.145 23.2546 23.2413C23.2546 23.3375 23.3008 23.5781 23.7094 23.9467C24.1177 24.315 24.7816 24.7064 25.7126 25.0616C27.5658 25.7687 30.2137 26.2333 33.203 26.2333C36.1924 26.2333 38.8402 25.7687 40.6934 25.0616C41.6245 24.7064 42.2883 24.315 42.6967 23.9467C43.1052 23.5781 43.1514 23.3375 43.1514 23.2413C43.1514 23.145 43.1052 22.9044 42.6967 22.5358C42.2883 22.1675 41.6245 21.7762 40.6934 21.4209C38.8402 20.7138 36.1924 20.2492 33.203 20.2492C30.2137 20.2492 27.5658 20.7138 25.7126 21.4209C24.7816 21.7762 24.1177 22.1675 23.7094 22.5358ZM43.1514 26.7832C42.6812 27.0474 42.1655 27.2828 41.6203 27.4908C39.4023 28.3371 36.426 28.8333 33.203 28.8333C29.98 28.8333 27.0037 28.3371 24.7857 27.4908C24.2405 27.2828 23.7249 27.0474 23.2546 26.7832V31.2889C23.2546 31.3852 23.3008 31.6258 23.7094 31.9943C24.1177 32.3627 24.7816 32.754 25.7126 33.1093C27.5658 33.8164 30.2137 34.281 33.203 34.281C36.1924 34.281 38.8402 33.8164 40.6934 33.1093C41.6245 32.754 42.2883 32.3627 42.6967 31.9943C43.1052 31.6258 43.1514 31.3852 43.1514 31.2889V26.7832ZM45.7514 23.2413C45.7514 22.1523 45.1682 21.2638 44.4383 20.6053C43.7082 19.9467 42.7248 19.4132 41.6203 18.9917C39.4023 18.1454 36.426 17.6492 33.203 17.6492C29.98 17.6492 27.0037 18.1454 24.7857 18.9917C23.6812 19.4132 22.6978 19.9467 21.9678 20.6053C21.2379 21.2638 20.6546 22.1523 20.6546 23.2413V39.3365C20.6546 40.4255 21.2379 41.314 21.9678 41.9725C22.6978 42.6311 23.6812 43.1646 24.7857 43.5861C27.0037 44.4324 29.98 44.9286 33.203 44.9286C36.426 44.9286 39.4023 44.4324 41.6203 43.5861C42.7248 43.1646 43.7082 42.6311 44.4383 41.9725C45.1682 41.314 45.7514 40.4255 45.7514 39.3365V23.2413ZM43.1514 34.8309C42.6812 35.0951 42.1655 35.3304 41.6203 35.5384C39.4023 36.3848 36.426 36.881 33.203 36.881C29.98 36.881 27.0037 36.3848 24.7857 35.5384C24.2405 35.3304 23.7249 35.0951 23.2546 34.8309V39.3365C23.2546 39.4328 23.3008 39.6734 23.7094 40.042C24.1177 40.4103 24.7816 40.8016 25.7126 41.1569C27.5658 41.864 30.2137 42.3286 33.203 42.3286C36.1924 42.3286 38.8402 41.864 40.6934 41.1569C41.6245 40.8016 42.2883 40.4103 42.6967 40.042C43.1052 39.6734 43.1514 39.4328 43.1514 39.3365V34.8309Z"/>
	</symbol>

	<symbol id="bill" width="48" height="48" viewBox="0 0 48 48">
		<path fill-rule="evenodd" clip-rule="evenodd" d="M9.3158 1.7002C10.0338 1.7002 10.6158 2.28223 10.6158 3.0002V8.09493H15.6316C16.3496 8.09493 16.9316 8.67696 16.9316 9.39493C16.9316 10.1129 16.3496 10.6949 15.6316 10.6949H10.6158V15.7897C10.6158 16.5076 10.0338 17.0897 9.3158 17.0897C8.59783 17.0897 8.0158 16.5076 8.0158 15.7897V10.6949H3.00001C2.28204 10.6949 1.70001 10.1129 1.70001 9.39493C1.70001 8.67696 2.28204 8.09493 3.00001 8.09493H8.0158V3.0002C8.0158 2.28223 8.59783 1.7002 9.3158 1.7002ZM36.9358 6.51447C35.9486 6.43281 34.6851 6.43177 32.8947 6.43177H24.0526C23.3347 6.43177 22.7526 5.84974 22.7526 5.13177C22.7526 4.4138 23.3347 3.83177 24.0526 3.83177L32.9521 3.83177C34.6721 3.83176 36.0432 3.83175 37.1501 3.92332C38.285 4.0172 39.2568 4.21392 40.1476 4.67344C41.5818 5.41338 42.7449 6.59245 43.4729 8.03898C43.9239 8.93531 44.1173 9.91327 44.2098 11.0587C44.3 12.1775 44.3 13.5642 44.3 15.3073V33.3247C44.3 35.0678 44.3 36.4544 44.2098 37.5732C44.1173 38.7187 43.9239 39.6967 43.4729 40.593C42.7449 42.0395 41.5818 43.2186 40.1476 43.9585C39.2568 44.4181 38.285 44.6148 37.1501 44.7086C36.0432 44.8002 34.6721 44.8002 32.9522 44.8002H15.1531C13.4332 44.8002 12.0621 44.8002 10.9552 44.7086C9.82031 44.6148 8.84847 44.4181 7.95773 43.9585C6.52346 43.2186 5.36035 42.0395 4.63241 40.593C4.18134 39.6967 3.98797 38.7187 3.89553 37.5732C3.80526 36.4545 3.80526 35.0679 3.80528 33.3248L3.80528 24.316C3.80528 23.598 4.38731 23.016 5.10528 23.016C5.82325 23.016 6.40528 23.598 6.40528 24.316V33.2686C6.40528 35.0805 6.40626 36.3622 6.48711 37.3641C6.56677 38.3513 6.71759 38.9526 6.9549 39.4242C7.43799 40.3842 8.20727 41.1617 9.14978 41.6479C9.61006 41.8853 10.198 42.0371 11.1695 42.1175C12.1567 42.1992 13.4202 42.2002 15.2105 42.2002H32.8947C34.6851 42.2002 35.9486 42.1992 36.9358 42.1175C37.9073 42.0371 38.4952 41.8853 38.9555 41.6479C39.898 41.1617 40.6673 40.3842 41.1504 39.4242C41.3877 38.9526 41.5385 38.3513 41.6182 37.3641C41.699 36.3622 41.7 35.0805 41.7 33.2686V15.3634C41.7 13.5515 41.699 12.2698 41.6182 11.2679C41.5385 10.2807 41.3877 9.67932 41.1504 9.20774C40.6673 8.24778 39.898 7.47031 38.9555 6.98408C38.4952 6.74662 37.9073 6.59484 36.9358 6.51447ZM24.0526 12.3581C24.7706 12.3581 25.3526 12.9401 25.3526 13.6581V34.9739C25.3526 35.6918 24.7706 36.2739 24.0526 36.2739C23.3347 36.2739 22.7526 35.6918 22.7526 34.9739V13.6581C22.7526 12.9401 23.3347 12.3581 24.0526 12.3581ZM32.4737 20.8844C33.1917 20.8844 33.7737 21.4664 33.7737 22.1844V34.9739C33.7737 35.6918 33.1917 36.2739 32.4737 36.2739C31.7557 36.2739 31.1737 35.6918 31.1737 34.9739V22.1844C31.1737 21.4664 31.7557 20.8844 32.4737 20.8844ZM15.6316 25.1476C16.3496 25.1476 16.9316 25.7296 16.9316 26.4476V34.9739C16.9316 35.6918 16.3496 36.2739 15.6316 36.2739C14.9136 36.2739 14.3316 35.6918 14.3316 34.9739V26.4476C14.3316 25.7296 14.9136 25.1476 15.6316 25.1476Z"/>
	</symbol>

	<symbol id="purchase" width="48" height="48" viewBox="0 0 48 48">
		<path fill-rule="evenodd" clip-rule="evenodd" d="M14.5482 13.0613V17.8666C14.5482 18.5845 15.1302 19.1666 15.8482 19.1666C16.5662 19.1666 17.1482 18.5845 17.1482 17.8666V13.0524L30.8528 13.0524V17.8666C30.8528 18.5845 31.4348 19.1666 32.1528 19.1666C32.8708 19.1666 33.4528 18.5845 33.4528 17.8666V13.0613C34.0453 13.0701 34.5476 13.0876 34.9892 13.1222C35.8526 13.1899 36.3805 13.3175 36.8018 13.5175C37.6647 13.9271 38.3863 14.5842 38.8747 15.4052C39.1131 15.8059 39.2894 16.3196 39.4374 17.1729C39.5881 18.042 39.6936 19.1571 39.8423 20.7433L41.0652 33.787C41.2411 35.6637 41.3644 36.9903 41.3738 38.0287C41.383 39.0533 41.2769 39.6689 41.0712 40.1478C40.6456 41.1385 39.8996 41.9576 38.953 42.4739C38.4954 42.7234 37.8924 42.8865 36.8714 42.9729C35.8367 43.0605 34.5043 43.0616 32.6194 43.0616H15.3816C13.4967 43.0616 12.1643 43.0605 11.1296 42.9729C10.1086 42.8865 9.50555 42.7234 9.048 42.4739C8.10136 41.9576 7.35545 41.1385 6.92979 40.1478C6.72405 39.6689 6.61798 39.0533 6.62724 38.0287C6.63663 36.9903 6.75991 35.6637 6.93585 33.787L8.15869 20.7433C8.3074 19.1571 8.41287 18.042 8.56359 17.1729C8.71156 16.3196 8.88792 15.8059 9.12631 15.4052C9.61471 14.5842 10.3363 13.9271 11.1992 13.5175C11.6205 13.3175 12.1484 13.1899 13.0118 13.1222C13.4534 13.0876 13.9557 13.0701 14.5482 13.0613ZM33.3652 10.4598C34.0495 10.4687 34.6546 10.488 35.1924 10.5302C36.2129 10.6102 37.0935 10.7779 37.9167 11.1687C39.2457 11.7995 40.357 12.8115 41.1092 14.0758C41.5751 14.859 41.8243 15.7201 41.9992 16.7287C42.1693 17.71 42.2834 18.9267 42.426 20.4474L43.6593 33.6033C43.8285 35.4076 43.9632 36.8438 43.9737 38.0052C43.9844 39.193 43.8697 40.2207 43.4601 41.1742C42.8045 42.6999 41.6558 43.9614 40.1979 44.7565C39.2868 45.2533 38.2743 45.4634 37.0907 45.5636C35.9334 45.6616 34.491 45.6616 32.6789 45.6616H15.3221C13.51 45.6616 12.0676 45.6616 10.9103 45.5636C9.72666 45.4634 8.71416 45.2533 7.80313 44.7565C6.34525 43.9614 5.19649 42.6999 4.54095 41.1742C4.13131 40.2207 4.01661 39.193 4.02735 38.0052C4.03785 36.8438 4.1725 35.4077 4.34165 33.6035L5.57505 20.4473C5.7176 18.9266 5.83165 17.7099 6.00183 16.7287C6.17673 15.7201 6.42592 14.859 6.89183 14.0758C7.644 12.8115 8.75528 11.7995 10.0843 11.1687C10.9075 10.7779 11.7881 10.6102 12.8086 10.5302C13.3464 10.488 13.9515 10.4687 14.6358 10.4598C15.266 5.85097 19.2186 2.30005 24.0005 2.30005C28.7824 2.30005 32.735 5.85097 33.3652 10.4598ZM30.7297 10.4524C30.1223 7.28959 27.3404 4.90005 24.0005 4.90005C20.6606 4.90005 17.8787 7.28959 17.2714 10.4524L30.7297 10.4524Z"/>
	</symbol>
</svg>