<svg width="137" height="41" viewBox="0 0 137 41" fill="none" xmlns="http://www.w3.org/2000/svg">
<path d="M112.406 11.1479C109.403 11.0859 107.289 12.5738 105.339 15.4023C106.007 11.5198 106.574 8.23404 107.138 4.94438C107.227 4.42515 107.654 3.75483 106.59 3.75871C104.131 3.76259 101.66 3.61922 99.2159 3.80908C97.6463 3.9292 98.3922 5.54496 98.0115 6.45167C97.7939 6.97863 97.7822 7.54047 98.5632 7.55208C100.071 7.57145 99.9463 8.41617 99.7481 9.5127C98.4932 16.5531 97.3121 23.6129 96.0339 30.6533C95.8435 31.6995 95.9679 32.0638 97.079 32.0056C98.4349 31.9359 99.8025 31.9165 101.155 32.0134C102.281 32.0909 102.604 31.56 102.74 30.5836C102.977 28.8593 103.303 27.1467 103.594 25.4341C103.695 24.8451 103.804 24.3491 104.608 24.2755C105.428 24.198 105.607 24.6669 105.782 25.2403C106.065 26.1664 106.337 27.0924 106.613 28.0185C107.86 32.1878 109.018 32.7573 113.408 32.2885C115.942 32.0211 115.374 30.2426 115.716 28.8167C116.128 27.077 114.71 28.0379 114.143 27.786C113.657 27.5729 113.471 27.1932 113.315 26.7864C112.989 25.9455 112.787 25.0505 112.406 24.2406C111.913 23.1906 111.99 22.5667 113.148 21.9468C115.098 20.9084 116.439 19.2577 116.983 17.0646C117.861 13.5347 116.035 11.2215 112.406 11.1479ZM109.492 18.9632C108.144 20.4279 106.349 20.8037 104.123 21.075C104.985 18.9904 105.65 17.2312 107.414 16.2703C108.206 15.8402 109.244 15.4682 109.908 16.3323C110.576 17.2002 110.199 18.1922 109.492 18.9632Z" fill="#3A5165"/>
<path d="M19.1153 11.6751C19.0493 11.6751 18.9793 11.6906 18.9211 11.6712C18.2839 11.4271 17.1261 12.233 17.0251 11.0939C16.9357 10.1213 17.2776 9.01311 18.3422 8.46676C19.1192 8.06767 20.0167 7.89718 20.7821 8.30015C22.7324 9.33472 23.5483 8.31178 24.1272 6.66501C24.2321 6.36277 24.3991 6.07604 24.5779 5.80869C25.0713 5.0725 24.9897 4.65402 24.0883 4.2278C17.9381 1.32947 12.1958 3.94105 10.6068 10.4041C10.4747 10.935 10.4941 11.7797 9.69377 11.6363C7.37431 11.2217 7.49088 12.9072 7.22667 14.306C7.02855 15.3522 6.93528 16.2976 8.52044 16.0574C9.25475 15.9489 9.56167 16.2395 9.41016 17.0532C8.41167 22.3732 7.49864 27.7088 6.45741 33.0172C5.98732 35.4118 5.16364 35.838 2.72377 35.3227C2.22645 35.2142 1.66699 34.8693 1.42611 35.5978C0.97155 36.9772 -0.427104 38.4147 0.128474 39.6508C0.668518 40.8558 2.56835 40.8248 3.98645 40.9682C4.30893 40.9992 4.63527 40.972 4.95774 40.972C9.83752 40.9953 12.087 39.0153 13.0001 33.9123C13.8781 29.0301 14.7445 24.144 15.6303 19.2618C16.2092 16.0729 16.2248 16.0961 19.4999 16.0303C20.1371 16.0187 20.8986 16.3751 21.3454 15.4452C22.6081 12.8104 21.9632 11.6751 19.1153 11.6751Z" fill="#3A5165"/>
<path d="M91.3135 11.8486C91.1231 11.8215 90.9444 11.7207 90.7579 11.6742C81.9269 9.51211 75.4348 13.2048 73.7913 21.3727C73.4222 23.2094 73.3562 25.0847 73.5699 26.9601C73.9817 30.5791 76.1419 32.4855 79.8017 32.4584C81.9308 32.4429 83.6908 31.637 85.1982 29.9321C86.7057 32.3693 88.2714 32.7955 91.43 32.2995C93.5164 31.9741 92.8676 30.335 93.3182 29.2191C93.5785 28.5759 93.4464 28.0761 92.5529 28.1845C91.2358 28.3434 91.263 27.584 91.4339 26.6191C92.1255 22.7483 92.6033 18.8309 93.5008 15.0104C94.0176 12.8134 93.1978 12.1082 91.3135 11.8486ZM86.2977 18.2923C86.0374 20.2026 85.645 22.0934 85.307 23.9882C85.2487 24.3059 85.2138 24.6275 85.1322 24.9375C84.5999 26.8787 83.3877 27.9637 81.9891 27.7583C80.7069 27.5685 80.1902 26.5726 80.233 23.7092C80.2874 22.4925 80.6564 20.6753 81.3247 18.92C81.721 17.8661 82.3504 16.9788 83.3139 16.3859C84.1687 15.8628 85.1555 15.5335 86.0724 16.0333C87.0748 16.5835 86.3948 17.5483 86.2977 18.2923Z" fill="#3A5165"/>
<path d="M58.4761 11.6287C54.183 11.7449 54.183 11.6597 54.1985 15.9025C54.2102 19.2077 54.0354 22.4896 52.5551 25.5236C51.9956 26.6666 51.1176 27.6431 49.6529 27.2168C48.1105 26.7635 48.736 25.4654 48.7787 24.4386C48.7943 24.055 48.9341 23.683 48.9963 23.2994C49.4431 20.5716 49.9559 17.8515 50.2978 15.1082C50.5115 13.3878 49.7694 12.0394 47.9861 11.5822C46.331 11.1598 44.6138 11.2838 42.9859 11.683C41.2648 12.1053 41.9447 13.8218 41.5795 14.9455C41.2454 15.9645 42.2322 15.6081 42.7023 15.6585C43.7668 15.7669 43.4754 16.4644 43.3744 17.0805C42.8966 20.002 42.3565 22.9159 41.9524 25.849C41.5329 28.8713 42.8771 31.1187 45.4608 31.9944C51.1098 33.9085 57.1279 31.1497 59.2881 25.6049C60.7994 21.7379 60.9199 17.7043 60.6829 13.6164C60.5935 12.0937 60.0729 11.5861 58.4761 11.6287Z" fill="#3A5165"/>
<path d="M33.4904 11.1555C23.5482 11.2137 19.9972 20.5634 21.4503 27.0885C22.0758 29.89 23.8629 31.5329 26.6564 32.1761C28.9253 32.703 31.1826 32.5635 33.3583 31.8932C37.8768 30.5022 37.7641 31.1376 36.1207 26.1043C35.6428 26.3058 35.1649 26.4879 34.6948 26.7049C33.1874 27.3985 31.6022 27.6349 29.9704 27.4101C28.6689 27.228 27.7171 26.4608 27.8064 25.1202C27.9074 23.6594 29.2089 24.4382 29.9394 24.3723C32.4103 24.1515 34.8269 23.8066 36.921 22.3691C39.3648 20.6913 40.3866 17.3861 39.4386 14.4413C38.716 12.1901 36.7928 11.1362 33.4904 11.1555ZM33.1097 19.0639C32.0723 19.9164 30.7902 20.083 29.4654 20.1527C28.599 20.3 28.2687 19.9319 28.6106 19.0872C29.1584 17.7504 29.9394 16.6151 31.3847 16.0842C32.286 15.751 33.2301 15.5766 33.7857 16.5221C34.349 17.483 33.9139 18.4013 33.1097 19.0639Z" fill="#3A5165"/>
<path d="M136.634 14.4183C135.869 12.1748 134.062 11.1519 130.865 11.1558C123.533 11.1674 118.42 16.5184 118.339 24.2718C118.284 29.5647 121.132 32.4475 126.626 32.4592C128.199 32.5367 129.897 32.1221 131.576 31.6377C134.672 30.7465 134.594 30.7465 133.895 27.5537C133.608 26.2286 133.235 25.9845 132.022 26.6354C130.445 27.484 128.689 27.6971 126.929 27.3639C125.717 27.1353 124.905 26.2673 124.986 25.0506C125.08 23.6674 126.311 24.4346 126.983 24.3803C129.59 24.1672 132.139 23.8223 134.322 22.2453C136.622 20.5869 137.59 17.2159 136.634 14.4183ZM130.488 18.9324C129.427 19.8895 128.083 20.0755 126.746 20.1491C125.627 20.3157 125.495 19.8352 125.884 18.9479C126.474 17.6072 127.306 16.5223 128.751 16.0263C129.594 15.7396 130.499 15.6234 130.985 16.4874C131.463 17.3399 131.23 18.2582 130.488 18.9324Z" fill="#3A5165"/>
<path d="M69.1603 3.75861C67.7034 3.75861 66.5378 3.71599 65.3761 3.76636C63.6861 3.83611 64.5214 5.34725 64.1057 6.14544C63.8765 6.58717 63.5889 7.41637 64.533 7.48224C66.3979 7.60235 65.8657 8.78803 65.6831 9.83034C64.6302 15.72 63.5462 21.6057 62.5128 27.5031C61.9377 30.7889 63.3209 32.4008 66.6777 32.4279C67.3226 32.4356 67.9714 32.4201 68.6125 32.3427C70.6755 32.0985 71.709 30.6997 71.4059 28.6849C71.3438 28.2819 71.1922 28.0804 70.8348 28.1114C68.5969 28.3245 69.2574 26.8095 69.4478 25.7052C70.4463 19.8698 71.503 14.0461 72.5326 8.21457C72.7774 6.82352 73.6321 4.97528 73.0494 4.1422C72.2956 3.06889 70.3064 3.96396 69.1603 3.75861Z" fill="#3A5165"/>
<path d="M83.7647 8.6138C84.433 9.22602 84.8914 9.43525 85.6996 8.81917C87.5372 7.41652 89.4565 6.11846 91.3331 4.7623C92.0829 4.21985 92.6696 3.56114 92.689 2.44908C92.5452 1.02706 91.1971 0.825562 90.1753 0.221102C89.1224 -0.406606 88.8154 0.445844 88.3687 0.996052C86.8224 2.88693 85.3266 4.81655 83.7686 6.69582C83.2014 7.37775 82.9722 7.88535 83.7647 8.6138Z" fill="#3A5165"/>
</svg>
