<svg width="287" height="279" viewBox="0 0 287 279" fill="none" xmlns="http://www.w3.org/2000/svg">
<g clip-path="url(#clip0)">
<path opacity="0.3" d="M144.422 279C221.422 279 283.843 216.544 283.843 139.5C283.843 62.4563 221.422 0 144.422 0C67.4211 0 4.99994 62.4563 4.99994 139.5C4.99994 216.544 67.4211 279 144.422 279Z" fill="url(#paint0_linear)"/>
<path opacity="0.3" d="M21.2242 42.4722C32.9459 42.4722 42.4483 32.9644 42.4483 21.2361C42.4483 9.50772 32.9459 0 21.2242 0C9.50238 0 0 9.50772 0 21.2361C0 32.9644 9.50238 42.4722 21.2242 42.4722Z" fill="url(#paint1_linear)"/>
<path opacity="0.3" d="M273.627 252.27C281.153 252.27 287.255 246.165 287.255 238.635C287.255 231.105 281.153 225 273.627 225C266.101 225 260 231.105 260 238.635C260 246.165 266.101 252.27 273.627 252.27Z" fill="url(#paint2_linear)"/>
<path d="M142.212 49.6345C134.845 49.6684 127.811 50.2911 121.625 51.3772C103.384 54.571 100.073 61.2533 100.073 73.5825V89.8621H143.161V95.2876H100.073H83.9053C71.3825 95.2876 60.4089 102.749 56.9857 116.935C53.0289 133.199 52.8537 143.362 56.9857 160.342C60.0489 172.987 67.3646 181.99 79.8875 181.99H94.7037V162.477C94.7037 148.38 107.01 135.939 121.623 135.939H164.663C176.644 135.939 186.214 126.162 186.214 114.243V73.5761C186.214 62.0019 176.363 53.3142 164.663 51.3708C157.26 50.1495 149.58 49.5947 142.211 49.6281L142.212 49.6345ZM118.909 62.7267C123.361 62.7267 126.994 66.3888 126.994 70.8904C126.994 75.3761 123.359 79.0048 118.909 79.0048C114.443 79.0048 110.823 75.3777 110.823 70.8904C110.823 66.3888 114.443 62.7267 118.909 62.7267Z" fill="url(#paint3_linear)"/>
<path d="M191.584 95.2744V114.246C191.584 128.95 179.006 141.326 164.664 141.326H121.625C109.835 141.326 100.073 151.326 100.073 163.021V203.689C100.073 215.263 110.229 222.071 121.625 225.384C135.265 229.36 148.352 230.078 164.664 225.384C175.513 222.272 186.216 216.005 186.216 203.689V187.409H143.177V181.983H186.216H207.768C220.291 181.983 224.964 173.326 229.32 160.336C233.818 146.957 233.627 134.084 229.32 116.929C226.224 104.572 220.313 95.2808 207.768 95.2808H191.6L191.584 95.2744ZM167.38 198.273C171.847 198.273 175.466 201.9 175.466 206.387C175.466 210.889 171.847 214.551 167.38 214.551C162.929 214.551 159.295 210.889 159.295 206.387C159.295 201.901 162.93 198.273 167.38 198.273Z" fill="url(#paint4_linear)"/>
</g>
<defs>
<linearGradient id="paint0_linear" x1="271.442" y1="300.415" x2="175.287" y2="178.739" gradientUnits="userSpaceOnUse">
<stop stop-color="#7A9AC1"/>
<stop offset="1" stop-color="#B8CEE8" stop-opacity="0.5"/>
</linearGradient>
<linearGradient id="paint1_linear" x1="31.3578" y1="34.8782" x2="17.5572" y2="16.3205" gradientUnits="userSpaceOnUse">
<stop stop-color="#7A9AC1"/>
<stop offset="1" stop-color="#B8CEE8" stop-opacity="0.5"/>
</linearGradient>
<linearGradient id="paint2_linear" x1="280.406" y1="248.655" x2="270.356" y2="233.817" gradientUnits="userSpaceOnUse">
<stop stop-color="#7A9AC1"/>
<stop offset="1" stop-color="#B8CEE8" stop-opacity="0.5"/>
</linearGradient>
<linearGradient id="paint3_linear" x1="53.9492" y1="49.631" x2="152.603" y2="134.417" gradientUnits="userSpaceOnUse">
<stop stop-color="#5A9FD4"/>
<stop offset="1" stop-color="#306998"/>
</linearGradient>
<linearGradient id="paint4_linear" x1="166.364" y1="205.072" x2="131.068" y2="155.246" gradientUnits="userSpaceOnUse">
<stop stop-color="#FFD43B"/>
<stop offset="1" stop-color="#FFE873"/>
</linearGradient>
<clipPath id="clip0">
<rect width="287" height="279" fill="white"/>
</clipPath>
</defs>
</svg>
