<svg xmlns="http://www.w3.org/2000/svg" width="177" height="58" fill="none" viewBox="0 0 177 58"><rect width="176.57" height="58" x=".43" fill="#7156FD" fill-opacity=".2" rx="29"/><path fill="#fff" fill-rule="evenodd" d="m51.744 17.212.18 1.082c.14 1.006.206 2.022.195 3.038a28 28 0 0 1-.807 6.665 25 25 0 0 1-3.717 8.278c-2.004 2.882-4.901 5.717-9.124 7.994l-.517.279-.517-.279c-4.223-2.277-7.119-5.112-9.124-7.994a25 25 0 0 1-3.717-8.278 28 28 0 0 1-.807-6.664c-.01-1.016.055-2.032.196-3.038l.179-1.082a.68.68 0 0 0-1.066-.666.68.68 0 0 0-.273.444l-.18 1.082a21.5 21.5 0 0 0-.214 3.26c.001 2.356.285 4.704.846 6.992a26.3 26.3 0 0 0 3.924 8.729c2.115 3.044 5.183 6.037 9.598 8.413l.839.452a.68.68 0 0 0 .643 0l.838-.452c4.41-2.377 7.48-5.37 9.598-8.413a26.3 26.3 0 0 0 3.92-8.728c.562-2.288.846-4.636.847-6.992.011-1.09-.06-2.18-.215-3.26l-.178-1.082a.678.678 0 1 0-1.34.222z" clip-rule="evenodd"/><path fill="#fff" fill-rule="evenodd" d="m27.871 16.475 10.085-3.081 10.309 3.147a.681.681 0 0 0 .396-1.304L38.154 12.03a.7.7 0 0 0-.396 0l-10.284 3.139a.68.68 0 1 0 .396 1.303z" clip-rule="evenodd"/><path fill="#fff" fill-rule="evenodd" d="m22.892 17.41 14.457 28.218a.677.677 0 0 0 1.202.01l8.816-16.488.014-.027 5.643-11.731a.68.68 0 0 0-1.223-.593l-5.634 11.722-8.193 15.334L24.1 16.79a.677.677 0 0 0-1.284.363.7.7 0 0 0 .076.255z" clip-rule="evenodd"/><path fill="#fff" fill-rule="evenodd" d="M29.812 29.977H45.89a.678.678 0 1 0 0-1.357H29.812a.678.678 0 1 0 0 1.357" clip-rule="evenodd"/><path fill="#fff" d="M109.937 32.263v3.32a1.88 1.88 0 0 1-1.888 1.889h-1.731l3.557 4.219h-1.684l-3.542-4.218h-4.159a6 6 0 0 1-.615-.063v4.28h-1.28V30.375h9.444a1.88 1.88 0 0 1 1.889 1.889zm-9.443 3.92h7.555a.59.59 0 0 0 .598-.6v-3.32a.6.6 0 0 0-.173-.433.56.56 0 0 0-.426-.181h-7.555a.62.62 0 0 0-.614.614v3.32a.56.56 0 0 0 .181.428.6.6 0 0 0 .434.171"/><path fill="#fff" fill-rule="evenodd" d="M116.706 30.358h11.329v1.28h-5.013v10.058h-1.28V31.638h-5.036zm18.195 11.333V30.358h1.28V41.69zm18.289-11.333h1.638l-4.738 5.666 4.753 5.666h-1.653l-4.218-5.02h-3.651v5.02h-1.289V30.359h1.291v5.02h3.652z" clip-rule="evenodd"/><path fill="#fff" d="M73.595 31.633h-9.413a.62.62 0 0 0-.614.615v7.555a.62.62 0 0 0 .614.614h9.413v1.28h-9.413a1.88 1.88 0 0 1-1.889-1.889v-7.555a1.88 1.88 0 0 1 1.889-1.889h9.413zm17.675-1.275v1.28h-9.065v3.74h7.286v1.29h-7.287v3.747h9.065v1.28H80.924V30.358zm-15.702-9.801 2.56-5.6h.584l2.56 5.6h-.624l-2.352-5.256h.24l-2.352 5.256zm1.008-1.496.176-.48h3.256l.176.48zm9.922 1.544q-1.073 0-1.688-.616-.616-.615-.616-1.824v-3.208h.592v3.184q0 .993.448 1.464.447.472 1.264.472.823 0 1.272-.472.447-.472.448-1.464v-3.184h.576v3.208q0 1.208-.616 1.824-.609.615-1.68.616m6.24-.048v-5.6h2.28q.896 0 1.567.36a2.6 2.6 0 0 1 1.056.984q.376.633.376 1.456 0 .825-.376 1.456-.375.632-1.056.992-.671.352-1.567.352zm.591-.512h1.657q.743 0 1.287-.288.552-.295.856-.808.304-.52.304-1.192.001-.68-.304-1.192a2.1 2.1 0 0 0-.856-.8q-.543-.296-1.287-.296h-1.657zm8.178.512v-5.6h.592v5.6zm5.662 0V15.47h-1.968v-.512h4.528v.512h-1.968v5.088zm6.194-3.096h2.96v.504h-2.96zm.064 2.584h3.368v.512h-3.96v-5.6h3.84v.512h-3.248zm6.919.512v-5.6h2.28q.897 0 1.568.36.681.353 1.056.984.376.633.376 1.456 0 .825-.376 1.456-.375.632-1.056.992-.671.352-1.568.352zm.592-.512h1.656q.745 0 1.288-.288.552-.295.856-.808.304-.52.304-1.192 0-.68-.304-1.192a2.1 2.1 0 0 0-.856-.8q-.543-.296-1.288-.296h-1.656zm12.431.512v-5.6h2.416q.936 0 1.448.376.52.375.52 1.064 0 .456-.216.768-.207.313-.576.472-.36.16-.792.16l.136-.192q.536 0 .92.168.393.16.608.488.216.32.216.8 0 .713-.528 1.104-.52.393-1.576.392zm.592-.488h1.976q.737 0 1.128-.248.392-.256.392-.808 0-.544-.392-.792-.392-.256-1.128-.256h-2.04v-.488h1.848q.672 0 1.04-.256.376-.256.376-.76 0-.511-.376-.76-.368-.255-1.04-.256h-1.784zm8.818.488v-2.08l.136.368-2.376-3.888h.632l2.088 3.416h-.336l2.088-3.416h.592l-2.376 3.888.136-.368v2.08z"/><path fill="#7156FB" d="m65.888 13.889 3.45.862c.192.049.329.24.329.461v4.718c0 .947-.421 1.833-1.122 2.358l-2.657 1.993-2.657-1.993c-.701-.526-1.122-1.41-1.122-2.358v-4.718c0-.221.137-.412.329-.46z"/><path stroke="#fff" stroke-width="1.337" d="m63.997 18.762 1.546 1.457 2.705-2.55"/></svg>