<svg width="36" height="41" viewBox="0 0 36 41" fill="none" xmlns="http://www.w3.org/2000/svg">
<path d="M35.9959 20.5275C35.9338 18.1513 35.9831 15.7706 35.9831 13.3921V6.09216C35.9831 4.26488 35.9766 4.27807 34.3535 3.45012C31.5484 2.02262 28.574 1.14415 25.4991 0.636935C19.846 -0.298683 14.2035 -0.23059 8.59317 1.02126C5.72171 1.66252 2.95292 2.5871 0.42189 4.16612C0.111354 4.35936 0 4.57458 0 4.95011C0.0128606 10.3483 -0.00637802 15.7465 0.0235255 21.1446C0.030008 22.0296 0.152027 22.9389 0.372643 23.7954C1.23336 27.1555 2.84585 30.1246 4.97224 32.8149C8.28912 37.0119 12.4798 39.7746 17.636 40.9583C17.8524 41.0088 18.0986 41.0155 18.3149 40.9671C21.3406 40.3039 24.1051 39.0301 26.5998 37.159C30.0259 34.585 32.5762 31.26 34.3728 27.3377C35.3556 25.1921 36.0601 22.963 35.9959 20.5275ZM4.71095 7.8908C4.55244 7.95889 4.39184 8.02259 4.15637 8.11921C6.97221 4.99622 9.88226 4.35711 13.6404 5.86589C14.0043 6.01302 14.362 6.17998 14.7217 6.3403C15.5033 6.68291 15.9787 7.41425 15.9744 8.26633C15.9701 9.05911 15.4755 9.79925 14.7517 10.1001C14.0023 10.412 13.1543 10.21 12.5568 9.57748C12.5076 9.52472 12.4562 9.47422 12.4069 9.42157C9.90161 6.86735 7.96792 6.48303 4.71095 7.8908ZM15.9145 14.3453C13.7495 17.0114 8.44114 17.1256 6.05995 14.3409C8.46258 11.6506 13.7174 11.6681 15.9145 14.3453ZM20.0044 36.7066C20.0023 36.8186 19.9337 36.9547 19.8545 37.0382C19.2614 37.6663 18.6575 38.2856 18.0023 38.9664C17.3363 38.2791 16.6982 37.6267 16.0707 36.9635C16.0065 36.8977 15.9851 36.7637 15.9851 36.6626C15.9787 35.4042 15.9808 34.1458 15.9808 32.8457H20.0109C20.0109 34.1569 20.0151 35.4306 20.0044 36.7066ZM26.7325 25.8224C25.7774 27.2784 24.4327 28.1372 22.7538 28.4425C21.1778 28.7279 19.7003 28.4446 18.3491 27.564C18.0837 27.3926 17.908 27.3993 17.6403 27.564C14.726 29.3472 11.3213 28.6906 9.33407 25.8861C8.27626 24.397 7.35981 22.8027 6.38335 21.2544C6.27199 21.0743 6.19274 20.8745 6.17559 20.5889C6.67883 20.8745 7.19921 21.1314 7.67882 21.4521C8.91657 22.2822 10.1542 23.1124 11.3598 23.9908C12.9337 25.1416 14.6682 25.0537 16.0729 23.6833C16.7153 23.0531 17.3469 22.4096 18.0087 21.7486C18.5612 22.3085 19.1307 22.8796 19.6939 23.455C21.2914 25.0889 22.9017 25.2009 24.7668 23.8766C26.1286 22.9103 27.5334 22.0055 28.9231 21.0831C29.2036 20.8986 29.512 20.7603 29.8075 20.6C29.8696 20.6549 29.9317 20.7075 29.9916 20.7624C28.906 22.4491 27.831 24.1445 26.7325 25.8224ZM20.0772 14.3584C22.3492 11.6308 27.6576 11.6572 29.9081 14.3563C27.6833 17.0378 22.3727 17.0971 20.0772 14.3584ZM31.7475 8.04017C31.0409 7.80072 30.3363 7.54818 29.6233 7.32857C27.6919 6.73781 26.0023 7.24954 24.5034 8.55619C23.9766 9.01526 23.5033 9.5511 22.9338 9.94423C22.0494 10.557 20.8117 10.2056 20.2849 9.27433C19.7475 8.32123 20.0344 6.96397 20.968 6.49407C22.3128 5.81538 23.7068 5.2686 25.2271 5.11708C27.118 4.93038 28.7861 5.47717 30.2721 6.65213C30.8053 7.07378 31.3021 7.54604 31.816 7.99621C31.7925 8.01154 31.7711 8.02473 31.7475 8.04017Z" fill="white"/>
</svg>
