<svg width="33" height="33" viewBox="0 0 33 33" fill="none" xmlns="http://www.w3.org/2000/svg">
<path fill-rule="evenodd" clip-rule="evenodd" d="M16.5 33C25.6127 33 33 25.6127 33 16.5C33 7.3873 25.6127 0 16.5 0C7.3873 0 0 7.3873 0 16.5C0 25.6127 7.3873 33 16.5 33ZM16.2861 5.4212C15.3658 5.42543 14.4871 5.50306 13.7143 5.63846C11.4357 6.03666 11.0222 6.86978 11.0222 8.40694V10.4366H16.4045V11.1131H11.0222H9.00253C7.43822 11.1131 6.06744 12.0433 5.63982 13.812C5.14555 15.8397 5.12367 17.1068 5.63982 19.2239C6.02247 20.8004 6.93632 21.9228 8.50063 21.9228H10.3514V19.49C10.3514 17.7324 11.8886 16.1813 13.7141 16.1813H19.0905C20.5871 16.1813 21.7826 14.9623 21.7826 13.4764V8.40615C21.7826 6.96312 20.552 5.87996 19.0905 5.63767C18.1658 5.4854 17.2063 5.41623 16.2859 5.4204L16.2861 5.4212ZM13.3751 7.05349C13.9312 7.05349 14.3851 7.51007 14.3851 8.07131C14.3851 8.63056 13.931 9.08297 13.3751 9.08297C12.8171 9.08297 12.365 8.63076 12.365 8.07131C12.365 7.51007 12.8171 7.05349 13.3751 7.05349ZM22.4536 11.1113V13.4767C22.4536 15.3099 20.8824 16.8529 19.0908 16.8529H13.7145C12.2418 16.8529 11.0223 18.0997 11.0223 19.5578V24.628C11.0223 26.0711 12.2909 26.9199 13.7145 27.333C15.4184 27.8287 17.0531 27.9182 19.0908 27.333C20.446 26.9449 21.783 26.1636 21.783 24.628V22.5983H16.4067V21.9219H21.783H24.4752C26.0395 21.9219 26.6233 20.8425 27.1674 19.2229C27.7293 17.5549 27.7054 15.95 27.1674 13.8111C26.7807 12.2706 26.0423 11.1121 24.4752 11.1121H22.4556L22.4536 11.1113ZM19.4301 23.9528C19.988 23.9528 20.4401 24.405 20.4401 24.9645C20.4401 25.5257 19.988 25.9823 19.4301 25.9823C18.874 25.9823 18.4201 25.5257 18.4201 24.9645C18.4201 24.4052 18.8742 23.9528 19.4301 23.9528Z" fill="white"/>
</svg>
