<svg width="32" height="32" viewBox="0 0 32 32" fill="none" xmlns="http://www.w3.org/2000/svg">
<path fill-rule="evenodd" clip-rule="evenodd" d="M30.1144 2.53426C30.9792 3.26262 31.0898 4.55415 30.3615 5.41899L16.5679 21.7973C16.1868 22.2498 15.6285 22.5153 15.0369 22.5255C14.4454 22.5356 13.8784 22.2893 13.482 21.85L7.57046 15.2987C6.81299 14.4592 6.87944 13.1647 7.71889 12.4072C8.55835 11.6497 9.85291 11.7162 10.6104 12.5556L14.9487 17.3635L27.2296 2.78138C27.958 1.91654 29.2495 1.8059 30.1144 2.53426Z" fill="#02CE3B"/>
<path fill-rule="evenodd" clip-rule="evenodd" d="M19.1026 5.44228C16.8396 4.77728 14.4229 4.85696 12.2087 5.66958C9.99451 6.4822 8.09999 7.98475 6.80446 9.95571C5.50894 11.9267 4.88097 14.2617 5.01314 16.6166C5.14531 18.9715 6.03062 21.2217 7.53855 23.0353C9.04648 24.8489 11.0972 26.13 13.3885 26.6898C15.6797 27.2495 18.0902 27.0583 20.2645 26.1443C22.4388 25.2302 24.2619 23.6418 25.4649 21.6131C26.668 19.5844 27.1875 17.2228 26.9467 14.8765C26.8456 13.8923 27.5616 13.0126 28.5458 12.9116C29.5299 12.8106 30.4097 13.5265 30.5107 14.5107C30.8299 17.6209 30.1414 20.7514 28.5466 23.4406C26.9518 26.1298 24.5351 28.2354 21.6529 29.447C18.7707 30.6587 15.5754 30.9122 12.5382 30.1702C9.50099 29.4282 6.78255 27.73 4.78366 25.3259C2.78477 22.9218 1.61122 19.939 1.43602 16.8174C1.26082 13.6958 2.09324 10.6005 3.81056 7.9878C5.52789 5.37513 8.03923 3.38338 10.9743 2.30619C13.9095 1.22899 17.113 1.12337 20.1127 2.00488C21.0619 2.28382 21.6053 3.27943 21.3263 4.22864C21.0474 5.17786 20.0518 5.72122 19.1026 5.44228Z" fill="#02CE3B" fill-opacity="0.6"/>
</svg>
