<svg width="22" height="4" viewBox="0 0 22 4" fill="none" xmlns="http://www.w3.org/2000/svg">
<path fill-rule="evenodd" clip-rule="evenodd" d="M1.83333 0C0.820811 0 0 0.895431 0 2C0 3.10457 0.820811 4 1.83333 4C2.84586 4 3.66667 3.10457 3.66667 2C3.66667 0.895431 2.84586 0 1.83333 0V0ZM11 0C9.98748 0 9.16667 0.895431 9.16667 2C9.16667 3.10457 9.98748 4 11 4C12.0125 4 12.8333 3.10457 12.8333 2C12.8333 0.895431 12.0125 0 11 0V0ZM20.1667 0C19.1541 0 18.3333 0.895431 18.3333 2C18.3333 3.10457 19.1541 4 20.1667 4C21.1792 4 22 3.10457 22 2C22 0.895431 21.1792 0 20.1667 0V0Z" fill="black"/>
</svg>
