<svg width="22" height="20" viewBox="0 0 22 20" fill="none" xmlns="http://www.w3.org/2000/svg">
<path fill-rule="evenodd" clip-rule="evenodd" d="M0 0V0.866035V14.7226V15.5886H0.846154H4.23077V18.1867V20L5.60577 18.8633L9.59856 15.5886H21.1538H22V14.7226V0.866035V0H21.1538H0.846154H0V0ZM1.69231 1.73207H20.3077V13.8566H9.30769H9.01683L8.77885 14.046L5.92308 16.3735V14.7226V13.8566H5.07692H1.69231V1.73207V1.73207ZM13.0625 3.84303L11.8462 5.08796L13.6442 6.92828H5.92308V8.66035H13.6442L11.7933 10.5548L13.0096 11.7997L16.2885 8.41678L16.8966 7.79432L16.2885 7.17185L13.0625 3.84303V3.84303Z" fill="#2B2B2B"/>
</svg>
