<svg width="327" height="327" viewBox="0 0 327 327" fill="none" xmlns="http://www.w3.org/2000/svg">
<circle cx="163.5" cy="163.5" r="156" stroke="#FFF9DB" stroke-opacity="0.2" stroke-width="15"/>
<circle cx="163.5" cy="163.5" r="126" stroke="#FFF9DB" stroke-opacity="0.5" stroke-width="15"/>
<path fill-rule="evenodd" clip-rule="evenodd" d="M163.5 267C220.661 267 267 220.661 267 163.5C267 106.339 220.661 60 163.5 60C106.339 60 60 106.339 60 163.5C60 220.661 106.339 267 163.5 267ZM162.158 94.0061C156.385 94.0326 150.873 94.5196 146.026 95.369C131.733 97.8667 129.139 103.093 129.139 112.735V125.467H162.901V129.71H129.139H116.47C106.658 129.71 98.0594 135.545 95.3771 146.64C92.2766 159.359 92.1394 167.307 95.3771 180.587C97.7773 190.475 103.51 197.516 113.322 197.516H124.932V182.256C124.932 171.231 134.574 161.501 146.025 161.501H179.749C189.137 161.501 196.636 153.855 196.636 144.534V112.73C196.636 103.678 188.917 96.8838 179.749 95.364C173.949 94.4089 167.931 93.975 162.157 94.0011L162.158 94.0061ZM143.898 104.245C147.386 104.245 150.234 107.109 150.234 110.63C150.234 114.138 147.385 116.975 143.898 116.975C140.398 116.975 137.563 114.139 137.563 110.63C137.563 107.109 140.398 104.245 143.898 104.245ZM200.845 129.698V144.535C200.845 156.035 190.99 165.713 179.752 165.713H146.027C136.789 165.713 129.14 173.534 129.14 182.68V214.485C129.14 223.536 137.098 228.861 146.027 231.452C156.715 234.561 166.97 235.123 179.752 231.452C188.252 229.018 196.639 224.117 196.639 214.485V201.753H162.915V197.51H196.639H213.526C223.339 197.51 227.001 190.739 230.413 180.58C233.938 170.117 233.788 160.05 230.413 146.633C227.988 136.97 223.356 129.703 213.526 129.703H200.858L200.845 129.698ZM181.88 210.249C185.379 210.249 188.215 213.086 188.215 216.595C188.215 220.116 185.379 222.98 181.88 222.98C178.392 222.98 175.544 220.116 175.544 216.595C175.544 213.087 178.393 210.249 181.88 210.249Z" fill="#FFF9DB"/>
</svg>
