<svg width="242" height="70" viewBox="0 0 242 70" fill="none" xmlns="http://www.w3.org/2000/svg">
<g clip-path="url(#clip0)">
<path d="M91.0341 29.8041C91.0341 22.4112 88.9228 18.6158 84.6996 18.4082C83.019 18.329 81.3791 18.596 79.7829 19.2149C78.5091 19.6698 77.6517 20.1206 77.2007 20.576V38.2219C79.9019 39.9145 82.3005 40.7014 84.3925 40.5775C88.818 40.2846 91.0341 36.6973 91.0341 29.8041ZM96.2432 30.1107C96.2432 33.8665 95.3609 36.9842 93.5862 39.4632C91.6087 42.2691 88.8678 43.714 85.3637 43.7932C82.722 43.8769 80.0005 43.0509 77.2002 41.3187V57.3568L72.6699 55.7434V20.1449C73.4134 19.2347 74.3704 18.4529 75.5297 17.7893C78.2264 16.2206 81.5021 15.4144 85.3586 15.3748L85.4227 15.4388C88.9472 15.3946 91.6626 16.8394 93.571 19.7688C95.3508 22.4559 96.2432 25.9 96.2432 30.1107ZM123.93 40.6364C123.93 45.6741 123.424 49.1624 122.413 51.1022C121.397 53.0416 119.464 54.5905 116.609 55.744C114.295 56.6542 111.791 57.1492 109.105 57.2335L108.356 54.3834C111.087 54.0128 113.011 53.6411 114.126 53.27C116.321 52.5278 117.828 51.3901 118.656 49.8655C119.32 48.6237 119.647 46.2534 119.647 42.7453V41.5675C116.549 42.9733 113.303 43.6708 109.908 43.6708C107.677 43.6708 105.71 42.9733 104.015 41.5675C102.111 40.0384 101.16 38.099 101.16 35.7485V16.9237L105.69 15.3748V34.3219C105.69 36.3455 106.344 37.9046 107.653 38.9981C108.961 40.0917 110.656 40.6166 112.733 40.5765C114.81 40.5318 117.035 39.7302 119.399 38.1615V16.0571H123.929V40.6364H123.93ZM141.614 43.5459C141.118 43.5878 140.62 43.6091 140.122 43.6099C137.56 43.6099 135.562 43.0017 134.135 41.7792C132.712 40.5572 131.999 38.8702 131.999 36.7171V18.9027H128.896V16.0576H131.999V8.50132L136.524 6.89299V16.0576H141.614V18.9027H136.524V36.5933C136.524 38.2909 136.979 39.4931 137.891 40.1963C138.674 40.775 139.919 41.1065 141.614 41.1908V43.5459H141.614ZM169.043 43.1748H164.513V25.7167C164.513 23.9404 164.097 22.4112 163.269 21.1349C162.313 19.6896 160.985 18.9671 159.279 18.9671C157.202 18.9671 154.605 20.0607 151.488 22.2478V43.1748H146.958V1.44508L151.488 0.0200195V19.0265C154.382 16.9232 157.544 15.8693 160.979 15.8693C163.379 15.8693 165.321 16.676 166.808 18.2843C168.3 19.8921 169.044 21.8964 169.044 24.2917V43.1748H169.043ZM193.121 29.0918C193.121 26.2513 192.581 23.9058 191.505 22.0503C190.227 19.7891 188.239 18.596 185.553 18.4727C180.586 18.7595 178.108 22.3122 178.108 29.1217C178.108 32.244 178.624 34.8519 179.664 36.9451C180.993 39.6124 182.985 40.9288 185.642 40.8842C190.628 40.8441 193.121 36.9151 193.121 29.0918ZM198.083 29.1212C198.083 33.1644 197.047 36.5293 194.98 39.2159C192.705 42.225 189.563 43.7338 185.553 43.7338C181.578 43.7338 178.48 42.2244 176.245 39.2159C174.217 36.5293 173.206 33.1644 173.206 29.1212C173.206 25.3212 174.301 22.1244 176.492 19.5215C178.807 16.7602 181.85 15.3748 185.612 15.3748C189.374 15.3748 192.437 16.7602 194.797 19.5215C196.988 22.1244 198.083 25.3212 198.083 29.1212ZM224.054 43.1748H219.524V24.7273C219.524 22.7037 218.915 21.1248 217.695 19.9866C216.476 18.8534 214.85 18.3041 212.823 18.3483C210.673 18.3879 208.625 19.0905 206.682 20.4516V43.1748H202.152V19.8926C204.759 17.998 207.158 16.7602 209.349 16.1815C211.415 15.6423 213.239 15.3748 214.811 15.3748C215.886 15.3748 216.898 15.4784 217.849 15.6865C219.628 16.0972 221.076 16.8592 222.191 17.9777C223.435 19.2149 224.054 20.6988 224.054 22.4361V43.1748Z" fill="white"/>
<path d="M27.9267 1.61207C25.5957 1.62273 23.37 1.82123 21.4117 2.16747C15.6422 3.18537 14.5947 5.31508 14.5947 9.24351V14.4315H28.2287V16.1606H9.47761C5.51534 16.1606 2.04531 18.5386 0.960157 23.062C-0.291782 28.247 -0.347209 31.4824 0.960157 36.8963C1.92937 40.9263 4.24408 43.7977 8.20635 43.7977H12.8943V37.5786C12.8943 33.0857 16.7879 29.1227 21.4117 29.1227H35.03C38.8209 29.1227 41.847 26.0066 41.847 22.2056V9.243C41.847 5.5542 38.7299 2.78278 35.03 2.16696C32.6873 1.77808 30.2577 1.6009 27.9267 1.61207ZM20.5534 5.78418C21.9619 5.78418 23.1116 6.95134 23.1116 8.38604C23.1116 9.81566 21.9614 10.9722 20.5534 10.9722C19.1402 10.9722 17.9951 9.81617 17.9951 8.38604C17.9951 6.95134 19.1402 5.78418 20.5534 5.78418Z" fill="url(#paint0_linear)"/>
<path d="M43.5473 16.1602V22.2046C43.5473 26.891 39.5677 30.8351 35.0298 30.8351H21.4116C17.6812 30.8351 14.5945 34.0224 14.5945 37.7523V50.7139C14.5945 54.4032 17.8073 56.573 21.4116 57.631C25.7272 58.8982 29.866 59.1271 35.0298 57.631C38.4622 56.639 41.8468 54.6418 41.8468 50.7139V45.5264H28.2286V43.7972H48.6639C52.6266 43.7972 54.1028 41.0375 55.4809 36.8958C56.9047 32.6323 56.8442 28.5313 55.4809 23.0616C54.5015 19.1235 52.6312 16.1602 48.6639 16.1602H43.5473ZM35.8877 48.9847C37.3008 48.9847 38.446 50.1407 38.446 51.5708C38.446 53.0055 37.3008 54.1727 35.8877 54.1727C34.4791 54.1727 33.3294 53.0055 33.3294 51.5708C33.3294 50.1412 34.4796 48.9847 35.8877 48.9847Z" fill="url(#paint1_linear)"/>
<path d="M232.876 12.0252H233.671V7.05195H235.552V6.45898H230.994V7.05195H232.876V12.0252H232.876ZM236.256 12.0252H236.935V7.48297L238.407 12.0247H239.162L240.698 7.49821V12.0252H241.438V6.45949H240.459L238.781 11.2281L237.351 6.45949H236.256V12.0252Z" fill="white"/>
<path opacity="0.444" d="M46.6544 66.443C46.6544 68.3966 38.4741 69.98 28.3828 69.98C18.292 69.98 10.1117 68.3966 10.1117 66.443C10.1117 64.4895 18.292 62.9055 28.3828 62.9055C38.4741 62.9055 46.6544 64.4895 46.6544 66.443Z" fill="url(#paint2_radial)"/>
</g>
<defs>
<linearGradient id="paint0_linear" x1="-1.34439" y1="3.23206" x2="30.0527" y2="30.0267" gradientUnits="userSpaceOnUse">
<stop stop-color="#5A9FD4"/>
<stop offset="1" stop-color="#306998"/>
</linearGradient>
<linearGradient id="paint1_linear" x1="41.8926" y1="46.6487" x2="30.6369" y2="30.8521" gradientUnits="userSpaceOnUse">
<stop stop-color="#FFD43B"/>
<stop offset="1" stop-color="#FFE873"/>
</linearGradient>
<radialGradient id="paint2_radial" cx="0" cy="0" r="1" gradientUnits="userSpaceOnUse" gradientTransform="translate(28.377 66.3617) rotate(-90) scale(3.53649 15.5731)">
<stop stop-color="#B8B8B8" stop-opacity="0.498"/>
<stop offset="1" stop-color="#7F7F7F" stop-opacity="0"/>
</radialGradient>
<clipPath id="clip0">
<rect width="241.439" height="70" fill="white"/>
</clipPath>
</defs>
</svg>
