<svg xmlns="http://www.w3.org/2000/svg"><symbol id="launching" viewBox="0 0 48 48" fill="#E40646"><path fill-rule="evenodd" clip-rule="evenodd" d="M11.841 30.694a5.549 5.549 0 00-3.745 1.302c-.929.78-1.634 1.878-2.174 2.983-.547 1.12-.968 2.34-1.285 3.448a33.148 33.148 0 00-.887 4.108 1.33 1.33 0 00.365 1.12 1.3 1.3 0 001.092.369 29.398 29.398 0 004.136-.892c1.108-.317 2.328-.737 3.447-1.284 1.105-.54 2.203-1.245 2.982-2.173 1.788-2.116 1.802-5.402-.256-7.433a5.564 5.564 0 00-3.675-1.548zm-5.195 10.43a29.788 29.788 0 001.982-.491c1.021-.292 2.084-.664 3.021-1.121.777-.38 1.572-.844 2.136-1.514.976-1.154.926-2.89-.088-3.898a2.948 2.948 0 00-3.927-.114c-.67.563-1.133 1.359-1.512 2.134-.458.938-.829 2-1.12 3.022a29.79 29.79 0 00-.492 1.982z"/><path fill-rule="evenodd" clip-rule="evenodd" d="M17.163 25.522l5.084 5.085v9.205a1.3 1.3 0 001.533 1.28 21.294 21.294 0 003.4-.947c1.952-.708 4.054-1.73 5.244-3.51.69-1.035.991-2.277 1.1-3.454.111-1.19.036-2.41-.103-3.488a25.18 25.18 0 00-.577-2.98c9.96-7.094 11.49-16.56 11.49-21.978a1.3 1.3 0 00-1.291-1.3 26.4 26.4 0 00-21.956 11.499 25.182 25.182 0 00-3.01-.585c-1.077-.139-2.299-.214-3.488-.104-1.21.113-2.436.42-3.457 1.102-1.79 1.197-2.879 3.51-3.507 5.243a23.944 23.944 0 00-.942 3.375 1.3 1.3 0 001.274 1.558h9.206zm2.062-1.614l4.64 4.64a42.26 42.26 0 006.768-3.466C39.503 19.127 41.44 11.223 41.7 6.064c-7.706.382-14.907 4.606-19 11.15-1.338 2.14-2.52 4.356-3.476 6.694zm5.622 14.256c.435-.122.93-.276 1.446-.463 1.691-.614 3.275-1.473 3.968-2.508.361-.542.587-1.308.675-2.253.147-1.585-.077-3.204-.415-4.753a44.842 44.842 0 01-5.674 2.768v7.209zM16.82 22.922a44.17 44.17 0 012.805-5.665c-1.562-.343-3.195-.572-4.794-.423-.945.088-1.71.313-2.253.675-1.036.693-1.895 2.277-2.508 3.968a20.73 20.73 0 00-.463 1.445h7.213z"/></symbol><symbol id="transparency" viewBox="0 0 48 48" fill="#5B57A2"><path fill-rule="evenodd" clip-rule="evenodd" d="M19.508 12.935a1.3 1.3 0 00-1.3 1.3v8.141h-1.58a1.3 1.3 0 000 2.6h1.58v3.537h-1.58a1.3 1.3 0 000 2.6h1.58v3.892a1.3 1.3 0 002.6 0v-3.893h5.42a1.3 1.3 0 000-2.6h-5.42v-3.536h7.34c3.348 0 6.099-2.675 6.099-6.02 0-3.346-2.752-6.02-6.1-6.02h-8.64zm1.3 9.441v-6.841h7.34c1.953 0 3.5 1.552 3.5 3.42 0 1.87-1.547 3.421-3.5 3.421h-7.34z"/><path fill-rule="evenodd" clip-rule="evenodd" d="M24 1.7C11.684 1.7 1.7 11.684 1.7 24S11.684 46.3 24 46.3 46.3 36.316 46.3 24 36.316 1.7 24 1.7zM4.3 24C4.3 13.12 13.12 4.3 24 4.3c10.88 0 19.7 8.82 19.7 19.7 0 10.88-8.82 19.7-19.7 19.7-10.88 0-19.7-8.82-19.7-19.7z"/></symbol><symbol id="promoting" viewBox="0 0 48 48" fill="#EF8019"><path fill-rule="evenodd" clip-rule="evenodd" d="M35.022 3.809c.555.22.89.789.81 1.38L33.92 19.537h9c.87 0 1.883-.073 2.614.491.553.427.888 1.078.914 1.777.034.922-.614 1.704-1.12 2.413l-13.944 19.52a1.3 1.3 0 01-2.347-.927l1.913-14.346h-9c-.87 0-1.883.073-2.614-.49a2.355 2.355 0 01-.914-1.777c-.034-.922.614-1.705 1.12-2.413L33.486 4.262a1.3 1.3 0 011.536-.453zm-2.457 6.216L21.689 25.251c-.182.255-.321.45-.428.608.19.004.43.005.743.005h10.431a1.3 1.3 0 011.289 1.472l-1.419 10.639 10.876-15.226c.182-.255.321-.45.428-.608-.19-.004-.43-.005-.743-.005H32.435a1.3 1.3 0 01-1.289-1.471l1.419-10.64zM5.825 12.4a1.3 1.3 0 011.3-1.3h10.546a1.3 1.3 0 010 2.6H7.125a1.3 1.3 0 01-1.3-1.3zM1.607 24a1.3 1.3 0 011.3-1.3h9.491a1.3 1.3 0 110 2.6h-9.49a1.3 1.3 0 01-1.3-1.3zm3.164 11.6a1.3 1.3 0 011.3-1.3h11.6a1.3 1.3 0 010 2.6h-11.6a1.3 1.3 0 01-1.3-1.3z"/></symbol><symbol id="nomodifications" viewBox="0 0 48 48" fill="#0698D6"><path fill-rule="evenodd" clip-rule="evenodd" d="M24 15.676a8.324 8.324 0 100 16.647 8.324 8.324 0 000-16.647zM18.276 24a5.724 5.724 0 1111.447 0 5.724 5.724 0 01-11.447 0z"/><path fill-rule="evenodd" clip-rule="evenodd" d="M19.405 2.735a1.3 1.3 0 00-1.143-.241 22.073 22.073 0 00-5.401 2.224 1.3 1.3 0 00-.642.98l-.574 5.11c-.282.264-.556.538-.82.82l-5.111.574a1.3 1.3 0 00-.98.64 22.132 22.132 0 00-2.237 5.41 1.3 1.3 0 00.24 1.144l3.21 4.018c-.013.387-.013.774 0 1.16l-3.212 4.019a1.3 1.3 0 00-.24 1.146 22.071 22.071 0 002.242 5.407 1.3 1.3 0 00.973.639l5.116.6c.266.282.54.556.823.822l.574 5.11a1.3 1.3 0 00.642.982 22.133 22.133 0 005.41 2.226 1.3 1.3 0 001.142-.242l4.018-3.208c.387.012.774.012 1.16 0l4.019 3.21a1.3 1.3 0 001.146.241 22.072 22.072 0 005.407-2.242 1.3 1.3 0 00.64-.979l.574-5.109c.282-.264.555-.538.82-.82l5.11-.574a1.3 1.3 0 00.982-.642 22.137 22.137 0 002.226-5.41 1.3 1.3 0 00-.242-1.142L42.07 24.59c.012-.387.012-.774 0-1.16l3.21-4.019a1.3 1.3 0 00.24-1.146 22.068 22.068 0 00-2.241-5.407 1.3 1.3 0 00-.98-.64l-5.108-.574a18.276 18.276 0 00-.82-.82l-.574-5.11a1.3 1.3 0 00-.64-.98 22.132 22.132 0 00-5.41-2.237 1.3 1.3 0 00-1.144.24l-4.018 3.209a18.399 18.399 0 00-1.161 0l-4.018-3.21zm-5.231 8.848l.553-4.928a19.474 19.474 0 013.576-1.472l3.879 3.1c.25.2.567.3.888.281a15.794 15.794 0 011.866 0 1.3 1.3 0 00.888-.282l3.878-3.096a19.53 19.53 0 013.585 1.483l.554 4.931a1.3 1.3 0 00.429.827 15.6 15.6 0 011.317 1.318 1.3 1.3 0 00.827.429l4.93.554a19.471 19.471 0 011.486 3.583l-3.098 3.877a1.3 1.3 0 00-.282.888c.037.622.037 1.245 0 1.866a1.3 1.3 0 00.282.888l3.098 3.88a19.528 19.528 0 01-1.475 3.583l-4.93.554a1.3 1.3 0 00-.827.429 15.66 15.66 0 01-1.318 1.317 1.3 1.3 0 00-.429.828l-.554 4.93a19.471 19.471 0 01-3.583 1.486l-3.877-3.099a1.3 1.3 0 00-.888-.282c-.622.037-1.245.037-1.866 0a1.3 1.3 0 00-.888.282l-3.88 3.098a19.521 19.521 0 01-3.583-1.475l-.554-4.93a1.3 1.3 0 00-.429-.827 15.677 15.677 0 01-1.318-1.318 1.3 1.3 0 00-.82-.428l-4.94-.578a19.475 19.475 0 01-1.487-3.587l3.098-3.877a1.3 1.3 0 00.283-.888 15.795 15.795 0 010-1.867 1.3 1.3 0 00-.282-.887l-3.097-3.878c.374-1.241.87-2.442 1.483-3.585l4.931-.554a1.3 1.3 0 00.827-.43 15.66 15.66 0 011.318-1.317 1.3 1.3 0 00.429-.827z"/></symbol></svg>