<svg xmlns="http://www.w3.org/2000/svg"><symbol id="supermarkets" viewBox="0 0 32 32"><path d="M17.1 17.333a1.1 1.1 0 00-2.2 0v4.445a1.1 1.1 0 002.2 0v-4.445zm5.912-1.079a1.1 1.1 0 01.867 1.292l-.874 4.444a1.1 1.1 0 01-2.159-.425l.875-4.444a1.1 1.1 0 011.291-.867zm-12.733.867a1.1 1.1 0 10-2.159.425l.875 4.444a1.1 1.1 0 002.158-.424l-.874-4.445z" fill="#E40646"/><path fill-rule="evenodd" clip-rule="evenodd" d="M13.938 4.63a1.1 1.1 0 00-1.803-1.26L7.28 10.306H6.5a4.3 4.3 0 00-4.23 5.07l1.8 9.896a4.3 4.3 0 004.23 3.53h15.4a4.3 4.3 0 004.23-3.53l1.8-9.896a4.3 4.3 0 00-4.231-5.07h-.778L19.864 3.37a1.1 1.1 0 00-1.802 1.262l3.973 5.676H9.965l3.973-5.676zM6.5 12.508a2.1 2.1 0 00-2.066 2.476l1.8 9.896A2.1 2.1 0 008.3 26.604h15.4a2.1 2.1 0 002.065-1.725l1.8-9.896a2.1 2.1 0 00-2.066-2.476H6.5z" fill="#E40646"/></symbol><symbol id="clothes" viewBox="0 0 32 32"><path fill-rule="evenodd" clip-rule="evenodd" d="M12.993 3.216a8.43 8.43 0 003.064.602c1.15 0 2.553-.205 3.63-.606a1.1 1.1 0 01.661.01l4 1.334a1.1 1.1 0 01.43.266l5.333 5.333a1.1 1.1 0 01.068 1.482l-3.334 4a1.1 1.1 0 01-1.078.371v12.259a1.1 1.1 0 01-1.1 1.1H7.334a1.1 1.1 0 01-1.1-1.1V16.008a1.1 1.1 0 01-1.079-.37l-3.333-4a1.1 1.1 0 01.067-1.483l5.333-5.333a1.1 1.1 0 01.476-.28l4.667-1.333a1.1 1.1 0 01.628.007zm.708 4.13C14.173 8.155 14.87 8.8 16 8.8s1.827-.645 2.3-1.454c.303-.521.498-1.09.624-1.677l-.183.038c-.806.174-1.776.357-2.685.328-.762-.025-1.792-.217-2.463-.379-.208-.05-.398-.1-.564-.145.158.638.337 1.262.67 1.835zm-7.403 6.216l.651-.329c.307-.153.744-.047 1.035.133.291.18.463.614.463.957v12.855h15.102V14.321c0-.342.145-.75.436-.931.292-.18.776-.294 1.082-.141l.65.313 2.126-2.579-4.438-4.437-2.31-.751c.034.345-.099.725-.199 1.051a7.677 7.677 0 01-.695 1.608C19.506 9.644 18.203 11 16 11c-2.203 0-3.506-1.355-4.2-2.546a7.704 7.704 0 01-.838-2.14c-.03-.134-.062-.272-.063-.41l-2.322.678-4.42 4.417 2.14 2.563z" fill="#5B57A2"/></symbol><symbol id="cafes" viewBox="0 0 32 32"><path d="M12.766 2.006a1.1 1.1 0 00-1.76 1.32c.133.181.25.376.356.575.207.39.297.701.29.856.04.038-.265.284-.313.325-.307.267-.94.818-.984 1.814-.035.779.307 1.537.543 1.984.16.3.337.594.541.866a1.1 1.1 0 001.76-1.32 4.914 4.914 0 01-.356-.576c-.206-.39-.297-.7-.29-.855-.034-.032.273-.29.313-.325.307-.268.94-.818.984-1.815.035-.778-.307-1.536-.543-1.983a6.54 6.54 0 00-.541-.866z" fill="#EF8019"/><path fill-rule="evenodd" clip-rule="evenodd" d="M2.65 12.936a1.1 1.1 0 011.1-1.1h21.18c1.468 0 2.895.431 4.033 1.385 1.082.908 1.738 2.184 1.738 3.566v.963c0 1.381-.656 2.658-1.738 3.565-.997.836-2.29 1.311-3.63 1.377a11.683 11.683 0 01-2.993 4.548h2.591a1.1 1.1 0 110 2.2H3.751a1.1 1.1 0 010-2.2h2.59a11.693 11.693 0 01-3.69-8.528v-5.776zm19.68 10.901a9.49 9.49 0 01-3.82 3.403h-8.339a9.491 9.491 0 01-5.32-8.528v-4.676h18.98v4.677a9.69 9.69 0 01-1.502 5.124zm3.578-3.43a3.779 3.779 0 001.64-.777c.641-.537.953-1.22.953-1.88v-.963c0-.661-.312-1.343-.952-1.88a3.748 3.748 0 00-1.518-.75v4.555c0 .57-.042 1.136-.123 1.695z" fill="#EF8019"/><path d="M16.36 1.787a1.1 1.1 0 011.54.219c.204.272.383.566.541.866.237.447.579 1.205.544 1.983-.045.997-.677 1.547-.985 1.815-.034.03-.344.295-.312.325-.007.154.083.466.29.855.105.2.224.393.356.576a1.1 1.1 0 01-1.76 1.32 6.549 6.549 0 01-.54-.866c-.237-.447-.58-1.205-.544-1.984.044-.996.677-1.547.984-1.814.061-.054.35-.29.313-.325.007-.155-.084-.466-.29-.856a4.623 4.623 0 00-.357-.576 1.1 1.1 0 01.22-1.538z" fill="#EF8019"/></symbol><symbol id="home" viewBox="0 0 32 32"><path fill-rule="evenodd" clip-rule="evenodd" d="M2.9 4.992c0 .608.04 1.454.202 2.422.322 1.925 1.137 4.413 3.154 6.424 2.11 2.105 4.73 2.425 6.709 2.26a11.97 11.97 0 001.954-.33v2.765h-5.49c-.567 0-1.046.446-1.096 1.009a24.061 24.061 0 000 3.69c.078.979.238 2.062.555 3.043.31.96.816 1.96 1.68 2.606.19.142.42.219.658.219h9.585a1.1 1.1 0 00.66-.22c.863-.645 1.368-1.644 1.678-2.605.318-.981.477-2.064.556-3.043a24.06 24.06 0 00.059-2.575c-.01-.375-.026-.75-.06-1.123a1.1 1.1 0 00-1.096-1h-5.49v-1.267c.513.034 1.153.056 1.866.036 1.748-.05 4.068-.359 5.986-1.507 2.05-1.227 3.05-3.516 3.55-5.282a16.588 16.588 0 00.579-3.377 1.111 1.111 0 00-.944-1.142c-.869-.117-1.75-.16-2.626-.16-1.473 0-3.435.15-5.126.825-1.682.67-2.984 1.952-3.86 3.033-.613-2.054-1.65-4.207-3.554-5.346-1.744-1.044-4.074-1.349-5.834-1.425a24.08 24.08 0 00-2.284.01 18.52 18.52 0 00-.955.07 1.101 1.101 0 00-.972.973A9.36 9.36 0 002.9 4.992zm2.2.131c.006.502.046 1.172.172 1.929.277 1.66.96 3.655 2.538 5.229 1.484 1.481 3.357 1.759 4.972 1.625a10.105 10.105 0 002.137-.422c0-.362.033-.737-.02-1.096-.06-.41-.234-1.401-.598-2.49-.506-1.515-1.299-2.98-2.442-3.663-1.25-.75-3.114-1.042-4.8-1.115a22.386 22.386 0 00-1.958.003zm12.019 9.938c.476.036 1.1.063 1.803.043 1.606-.045 3.479-.334 4.919-1.195 1.307-.783 2.105-2.378 2.563-3.994.194-.687.314-1.332.388-1.84-.359-.023-.79-.04-1.263-.04-1.374 0-3.006.147-4.31.668-1.237.493-2.29 1.515-3.063 2.497a12.695 12.695 0 00-1.037 1.54v2.321zm-6.647 5.672a21.79 21.79 0 00.053 2.323c.072.89.212 1.786.456 2.542.192.592.422 1.02.67 1.302h8.735c.248-.281.479-.71.67-1.302.245-.756.384-1.653.456-2.542.07-.876.07-1.706.053-2.323H10.472z" fill="#0698D6"/></symbol><symbol id="hotels" viewBox="0 0 32 32"><path fill-rule="evenodd" clip-rule="evenodd" d="M17.822 5.253A10.913 10.913 0 007.55 9.115c-.212.26-.326.414-.352.46.02.235.455.337.623.434l3.637 2.1c1.585-2.537 3.406-4.633 5.165-6.017a12.24 12.24 0 011.2-.84zM5.842 7.727c-.298.366-.71.825-.819 1.487-.144.873.238 1.73.946 2.237.216.156.485.31.751.463l7.776 4.49L8.436 26.9H4a1.1 1.1 0 000 2.2h23.998a1.1 1.1 0 100-2.2H10.977l5.425-9.396 7.81 4.51c.255.146.51.294.743.399a2.296 2.296 0 002.41-.3c.518-.425.71-1.012.878-1.452C30.5 14.754 28.2 7.919 22.55 4.657 16.897 1.394 9.829 2.82 5.84 7.727zm15.607-1.165c-.228-.131-.605-.2-1.226-.016-.623.186-1.386.603-2.24 1.275-1.506 1.184-3.15 3.05-4.62 5.388l6.372 3.679c1.29-2.442 2.084-4.799 2.357-6.695.155-1.075.134-1.945-.017-2.578-.15-.63-.399-.921-.626-1.053zm.193 11.427c1.404-2.642 2.308-5.266 2.627-7.482.072-.5.116-.989.127-1.46a10.913 10.913 0 011.792 10.83c-.06.154-.082.5-.274.553-.224-.084-.43-.223-.636-.342l-3.636-2.1z" fill="#78B72A"/></symbol></svg>