<svg xmlns="http://www.w3.org/2000/svg"><symbol id="clients" viewBox="0 0 48 48"><path fill-rule="evenodd" clip-rule="evenodd" d="M18.747 5.654a8.158 8.158 0 100 16.315 8.158 8.158 0 000-16.315zM7.99 13.812c0-5.941 4.816-10.758 10.757-10.758 5.942 0 10.758 4.817 10.758 10.758 0 5.941-4.816 10.757-10.758 10.757-5.941 0-10.757-4.816-10.757-10.757zm23.254-9.053a1.3 1.3 0 011.743-.586 10.758 10.758 0 015.975 9.639c0 4.225-2.436 7.88-5.975 9.638a1.3 1.3 0 01-1.157-2.328 8.158 8.158 0 004.532-7.31 8.158 8.158 0 00-4.532-7.31 1.3 1.3 0 01-.586-1.743zM18.747 30.874c-5.45 0-10.357 2.972-13.505 7.698-.386.579-.603.91-.735 1.18-.25.51.067 1.02.647 1.088.365.042.856.044 1.66.044H30.68c.804 0 1.296-.002 1.66-.044.543-.063.926-.52.648-1.088-.132-.27-.35-.601-.736-1.18-3.147-4.726-8.055-7.698-13.505-7.698zM3.078 37.131c3.554-5.336 9.22-8.857 15.67-8.857 6.447 0 12.115 3.521 15.668 8.857.32.48.652.958.906 1.476.247.504.407 1.044.369 1.68-.03.504-.2.991-.415 1.392a3.45 3.45 0 01-.929 1.117c-.535.405-1.124.559-1.706.627-.533.061-1.178.061-1.894.061h-24c-.715 0-1.36 0-1.893-.062-.583-.067-1.171-.221-1.707-.626a3.449 3.449 0 01-.929-1.117 3.448 3.448 0 01-.414-1.393c-.039-.635.121-1.175.368-1.679.254-.518.587-.997.906-1.476zM35.45 30.75a1.3 1.3 0 011.745-.578c3.292 1.653 6.089 4.293 8.12 7.564.34.55.7 1.09.814 1.826.12.778-.09 1.549-.426 2.154-.337.605-.88 1.19-1.606 1.498-.694.295-1.455.27-2.231.27a1.3 1.3 0 110-2.6c.996 0 1.121-.024 1.215-.063.277-.118.524-.563.478-.861-.017-.11-.037-.181-.454-.853-1.8-2.898-4.25-5.192-7.077-6.612a1.3 1.3 0 01-.578-1.745z"/></symbol><symbol id="turnover" viewBox="0 0 48 48"><path fill-rule="evenodd" clip-rule="evenodd" d="M5.303 8.587c-.409.368-.455.609-.455.705 0 .096.046.337.455.705.408.369 1.072.76 2.003 1.115 1.853.707 4.501 1.172 7.49 1.172 2.99 0 5.638-.465 7.49-1.172.932-.355 1.596-.746 2.004-1.115.409-.368.455-.609.455-.705 0-.096-.046-.337-.455-.705-.408-.369-1.072-.76-2.003-1.115-1.853-.707-4.501-1.172-7.49-1.172-2.99 0-5.638.465-7.49 1.172-.932.355-1.596.746-2.004 1.115zm19.477 4.227a1.3 1.3 0 002.565-.303V9.292c0-1.089-.583-1.977-1.313-2.636s-1.714-1.192-2.818-1.614C20.996 4.196 18.02 3.7 14.797 3.7c-3.224 0-6.2.496-8.418 1.342-1.104.422-2.088.955-2.818 1.614-.73.659-1.313 1.547-1.313 2.636v25.752c0 1.09.583 1.978 1.313 2.636.73.659 1.714 1.193 2.818 1.614 2.218.846 5.194 1.343 8.418 1.343a1.3 1.3 0 100-2.6c-2.99 0-5.638-.465-7.49-1.172-.932-.355-1.596-.747-2.004-1.115-.409-.369-.455-.61-.455-.706v-5.042c.47.265.986.5 1.531.708 2.218.846 5.194 1.342 8.418 1.342a1.3 1.3 0 100-2.6c-2.99 0-5.638-.464-7.49-1.171-.932-.356-1.596-.747-2.004-1.115-.409-.369-.455-.61-.455-.706v-5.042c.365.205.756.392 1.164.562 2.022.84 4.741 1.368 7.717 1.47.352.012.708.018 1.068.018a1.3 1.3 0 100-2.6c-.33 0-.657-.005-.978-.016-2.758-.095-5.151-.585-6.81-1.273-.832-.346-1.415-.716-1.77-1.056-.35-.337-.39-.555-.39-.647v-5.042c.47.264.985.5 1.53.708 2.218.846 5.194 1.342 8.418 1.342 3.223 0 6.199-.496 8.417-1.342a11.466 11.466 0 001.566-.728zm-1.07 9.722c-.41.368-.455.609-.455.705 0 .096.046.337.454.706.409.368 1.073.76 2.004 1.115 1.853.707 4.5 1.171 7.49 1.171s5.637-.464 7.49-1.171c.931-.356 1.595-.747 2.004-1.115.408-.369.454-.61.454-.706 0-.096-.046-.337-.454-.705-.409-.369-1.073-.76-2.004-1.115-1.853-.707-4.5-1.172-7.49-1.172s-5.637.465-7.49 1.172c-.931.355-1.595.747-2.004 1.115zm19.441 4.247c-.47.264-.986.5-1.53.708-2.219.846-5.195 1.342-8.418 1.342-3.223 0-6.2-.496-8.417-1.342a11.515 11.515 0 01-1.531-.708v4.506c0 .096.046.337.454.705.409.369 1.073.76 2.004 1.115 1.853.707 4.5 1.172 7.49 1.172s5.637-.465 7.49-1.172c.931-.355 1.595-.746 2.004-1.115.408-.368.454-.609.454-.705v-4.506zm2.6-3.542c0-1.089-.583-1.977-1.313-2.636-.73-.658-1.713-1.192-2.818-1.613-2.218-.847-5.194-1.343-8.417-1.343s-6.2.496-8.417 1.343c-1.105.421-2.088.955-2.818 1.613-.73.659-1.313 1.547-1.313 2.636v16.096c0 1.088.583 1.977 1.313 2.635.73.66 1.713 1.193 2.818 1.614 2.218.846 5.194 1.343 8.417 1.343s6.2-.497 8.417-1.343c1.105-.421 2.088-.955 2.818-1.614.73-.658 1.313-1.547 1.313-2.636V23.242zm-2.6 11.59c-.47.264-.986.5-1.53.707-2.219.847-5.195 1.343-8.418 1.343-3.223 0-6.2-.496-8.417-1.343a11.514 11.514 0 01-1.531-.707v4.505c0 .097.046.337.454.706.409.368 1.073.76 2.004 1.115 1.853.707 4.5 1.172 7.49 1.172s5.637-.465 7.49-1.172c.931-.355 1.595-.747 2.004-1.115.408-.369.454-.61.454-.706v-4.505z"/></symbol><symbol id="bill" viewBox="0 0 48 48"><path fill-rule="evenodd" clip-rule="evenodd" d="M9.316 1.7a1.3 1.3 0 011.3 1.3v5.095h5.016a1.3 1.3 0 110 2.6h-5.016v5.095a1.3 1.3 0 01-2.6 0v-5.095H3a1.3 1.3 0 110-2.6h5.016V3a1.3 1.3 0 011.3-1.3zm27.62 4.814c-.987-.081-2.25-.082-4.041-.082h-8.842a1.3 1.3 0 010-2.6h8.9c1.72 0 3.09 0 4.197.091 1.135.094 2.107.29 2.998.75a7.656 7.656 0 013.325 3.366c.45.896.644 1.874.737 3.02.09 1.119.09 2.505.09 4.248v18.018c0 1.743 0 3.13-.09 4.248-.093 1.146-.286 2.124-.737 3.02a7.656 7.656 0 01-3.325 3.365c-.891.46-1.863.657-2.998.75-1.107.092-2.478.092-4.198.092H15.153c-1.72 0-3.09 0-4.198-.091-1.135-.094-2.107-.29-2.997-.75a7.656 7.656 0 01-3.326-3.366c-.45-.896-.644-1.874-.736-3.02-.09-1.118-.09-2.505-.09-4.248v-9.009a1.3 1.3 0 112.6 0v8.953c0 1.812 0 3.093.081 4.095.08.987.23 1.589.468 2.06a5.056 5.056 0 002.195 2.224c.46.237 1.048.39 2.02.47.987.081 2.25.082 4.04.082h17.685c1.79 0 3.054 0 4.04-.083.972-.08 1.56-.232 2.02-.47a5.056 5.056 0 002.195-2.223c.238-.471.389-1.073.468-2.06.081-1.002.082-2.283.082-4.095V15.363c0-1.811-.001-3.093-.082-4.095-.08-.987-.23-1.589-.468-2.06a5.056 5.056 0 00-2.194-2.224c-.46-.237-1.049-.39-2.02-.47zm-12.883 5.844a1.3 1.3 0 011.3 1.3v21.316a1.3 1.3 0 01-2.6 0V13.658a1.3 1.3 0 011.3-1.3zm8.42 8.526a1.3 1.3 0 011.3 1.3v12.79a1.3 1.3 0 01-2.6 0v-12.79a1.3 1.3 0 011.3-1.3zm-16.841 4.264a1.3 1.3 0 011.3 1.3v8.526a1.3 1.3 0 01-2.6 0v-8.526a1.3 1.3 0 011.3-1.3z"/></symbol><symbol id="purchase" viewBox="0 0 48 48"><path fill-rule="evenodd" clip-rule="evenodd" d="M14.548 13.061v4.806a1.3 1.3 0 002.6 0v-4.815h13.705v4.815a1.3 1.3 0 002.6 0V13.06a24.69 24.69 0 011.536.061c.864.068 1.392.196 1.813.396a4.814 4.814 0 012.073 1.887c.238.4.414.915.562 1.768.151.869.257 1.984.405 3.57l1.223 13.044c.176 1.877.3 3.203.309 4.242.009 1.024-.097 1.64-.303 2.119a4.814 4.814 0 01-2.118 2.326c-.458.25-1.06.413-2.082.499-1.034.087-2.367.089-4.252.089H15.382c-1.885 0-3.218-.002-4.252-.09-1.021-.086-1.624-.249-2.082-.498a4.814 4.814 0 01-2.118-2.326c-.206-.48-.312-1.095-.303-2.12.01-1.038.133-2.364.309-4.241l1.223-13.044c.148-1.586.254-2.701.405-3.57.148-.853.324-1.367.562-1.768a4.814 4.814 0 012.073-1.887c.421-.2.95-.328 1.813-.396a24.69 24.69 0 011.536-.06zm18.817-2.601c.684.009 1.29.028 1.827.07 1.02.08 1.901.248 2.725.639a7.414 7.414 0 013.192 2.907c.466.783.715 1.644.89 2.653.17.981.284 2.198.427 3.718l1.233 13.156c.17 1.805.304 3.24.315 4.402.01 1.188-.104 2.216-.514 3.17a7.415 7.415 0 01-3.262 3.582c-.911.496-1.924.706-3.107.807-1.158.098-2.6.098-4.412.098H15.322c-1.812 0-3.254 0-4.412-.098-1.183-.1-2.196-.31-3.107-.807a7.414 7.414 0 01-3.262-3.583c-.41-.953-.524-1.981-.514-3.169.01-1.161.146-2.597.315-4.402l1.233-13.156c.143-1.52.257-2.737.427-3.718.175-1.009.424-1.87.89-2.653a7.414 7.414 0 013.192-2.907c.824-.391 1.704-.559 2.725-.639a28.546 28.546 0 011.827-.07C15.266 5.85 19.219 2.3 24 2.3c4.782 0 8.735 3.551 9.365 8.16zm-2.635-.008a6.855 6.855 0 00-13.459 0H30.73z"/></symbol></svg>